<svg width="42" height="43" viewBox="0 0 42 43" fill="none" xmlns="http://www.w3.org/2000/svg">
<rect x="0.5" y="1" width="41" height="41" rx="20.5" stroke="white"/>
<path d="M26 10.9999H16C13.2386 10.9999 11 13.2385 11 15.9999V25.9999C11 28.7614 13.2386 30.9999 16 30.9999H26C28.7614 30.9999 31 28.7614 31 25.9999V15.9999C31 13.2385 28.7614 10.9999 26 10.9999Z" stroke="white" stroke-width="1.99832" stroke-linecap="round" stroke-linejoin="round"/>
<path d="M25 20.37C25.1234 21.2022 24.9812 22.0522 24.5937 22.799C24.2062 23.5458 23.5931 24.1514 22.8416 24.5297C22.0901 24.9079 21.2384 25.0396 20.4077 24.9059C19.5771 24.7723 18.8097 24.3801 18.2148 23.7852C17.6199 23.1902 17.2277 22.4229 17.094 21.5922C16.9604 20.7615 17.092 19.9099 17.4703 19.1584C17.8485 18.4069 18.4541 17.7937 19.2009 17.4062C19.9477 17.0187 20.7977 16.8766 21.63 17C22.4789 17.1259 23.2648 17.5215 23.8716 18.1283C24.4785 18.7351 24.8741 19.5211 25 20.37Z" stroke="white" stroke-width="1.99832" stroke-linecap="round" stroke-linejoin="round"/>
<path d="M26.5 15.4999H26.51" stroke="white" stroke-width="1.99832" stroke-linecap="round" stroke-linejoin="round"/>
</svg>
