<svg width="61" height="61" viewBox="0 0 61 61" fill="none" xmlns="http://www.w3.org/2000/svg">
<g id="Frame 12">
<g id="Group 4">
<circle id="Ellipse 1" cx="30.238" cy="30.6675" r="28.5" stroke="white" stroke-width="3"/>
<path id="Vector 4" d="M41.638 13.2675C41.638 13.2675 47.6683 15.3487 50.038 18.3675C52.8629 21.9663 52.738 29.7675 52.738 29.7675" stroke="#A2ACB0" stroke-width="0.6" stroke-linecap="round"/>
<path id="Vector 5" d="M34.138 51.3675C34.138 51.3675 29.9339 53.0282 27.238 52.5675C24.602 52.1169 21.238 49.2675 21.238 49.2675" stroke="#A2ACB0" stroke-width="0.6" stroke-linecap="round"/>
<path id="Vector 5_2" d="M11.7317 37.0833C11.7317 37.0833 9.87179 30.7642 10.2041 26.664C10.529 22.6551 13.2171 17.4675 13.2171 17.4675" stroke="#A2ACB0" stroke-width="0.6" stroke-linecap="round"/>
<path id="Ellipse 3" d="M47.038 30.9675C47.038 40.0802 39.6507 47.4675 30.538 47.4675C21.4253 47.4675 14.038 40.0802 14.038 30.9675C14.038 21.8548 21.4253 14.4675 30.538 14.4675C39.6507 14.4675 47.038 21.8548 47.038 30.9675ZM47.038 30.9675C46.318 31.9275 39.738 38.9675 36.538 42.3675C33.338 45.7675 27.965 44.9474 23.638 42.3675C5.21396 31.3826 29.8504 6.8479 41.338 22.8675C42.8086 24.9183 43.9966 26.3571 43.738 28.8675C43.076 35.2918 34.3063 39.4618 28.438 38.5779M22.138 35.7675C20.4237 33.6363 20.3606 31.5409 20.938 28.8675C21.392 26.7652 22.0449 25.5124 23.638 24.0675C24.9963 22.8355 26.0661 22.44 27.838 21.9675C30.102 21.3637 31.6724 21.0726 33.838 21.9675C35.5293 22.6664 37.438 24.9675 37.438 24.9675M36.538 32.1675C34.1572 34.6905 30.4861 36.208 27.238 34.2675C15.4122 27.2024 40.9944 23.6347 32.338 30.9675" stroke="#A2ACB0" stroke-width="0.6" stroke-linecap="round"/>
</g>
</g>
</svg>
