<svg width="60" height="60" viewBox="0 0 60 60" fill="none" xmlns="http://www.w3.org/2000/svg">
<circle cx="30" cy="30" r="28.5" stroke="white" stroke-width="3"/>
<path d="M41.4 12.6001C41.4 12.6001 47.4304 14.6814 49.8 17.7001C52.625 21.2989 52.5 29.1001 52.5 29.1001" stroke="#C7D9E0" stroke-width="0.6" stroke-linecap="round"/>
<path d="M33.9 50.7001C33.9 50.7001 29.696 52.3609 27 51.9001C24.3641 51.4496 21 48.6001 21 48.6001" stroke="#C7D9E0" stroke-width="0.6" stroke-linecap="round"/>
<path d="M11.4937 36.4159C11.4937 36.4159 9.63381 30.0968 9.96613 25.9966C10.2911 21.9877 12.9791 16.8 12.9791 16.8" stroke="#C7D9E0" stroke-width="0.6" stroke-linecap="round"/>
<path d="M46.8 30.3C46.8 39.4127 39.4127 46.8001 30.3 46.8001C21.1873 46.8001 13.8 39.4127 13.8 30.3C13.8 21.1874 21.1873 13.8 30.3 13.8C39.4127 13.8 46.8 21.1874 46.8 30.3ZM46.8 30.3C46.08 31.26 39.5 38.3 36.3 41.7C33.1 45.1 27.727 44.2799 23.4 41.7C4.97599 30.7151 29.6124 6.18048 41.1 22.2C42.5706 24.2509 43.7586 25.6897 43.5 28.2C42.8381 34.6243 34.0684 38.7944 28.2 37.9104M21.9 35.1C20.1857 32.9689 20.1226 30.8735 20.7 28.2C21.154 26.0978 21.8069 24.8449 23.4 23.4C24.7583 22.1681 25.8281 21.7726 27.6 21.3C29.864 20.6963 31.4344 20.4052 33.6 21.3C35.2913 21.999 37.2 24.3 37.2 24.3M36.3 31.5C33.9192 34.0231 30.2482 35.5406 27 33.6C15.1742 26.535 40.7564 22.9673 32.1 30.3" stroke="#C7D9E0" stroke-width="0.6" stroke-linecap="round"/>
</svg>
