<svg width="100" height="100" viewBox="0 0 100 100" fill="none" xmlns="http://www.w3.org/2000/svg">
<circle cx="50" cy="50" r="47.5" stroke="white" stroke-width="5"/>
<path d="M69.0001 21.0002C69.0001 21.0002 79.0507 24.469 83.0001 29.5002C87.7083 35.4983 87.5001 48.5002 87.5001 48.5002" stroke="#C7D9E0" stroke-linecap="round"/>
<path d="M56.5 84.5002C56.5 84.5002 49.4933 87.2682 45 86.5002C40.6068 85.7494 35 81.0002 35 81.0002" stroke="#C7D9E0" stroke-linecap="round"/>
<path d="M19.1562 60.6931C19.1562 60.6931 16.0563 50.1612 16.6102 43.3275C17.1517 36.646 21.6318 28 21.6318 28" stroke="#C7D9E0" stroke-linecap="round"/>
<path d="M78 50.5002C78 65.6881 65.6878 78.0002 50.5 78.0002C35.3122 78.0002 23 65.6881 23 50.5002C23 35.3124 35.3122 23.0002 50.5 23.0002C65.6878 23.0002 78 35.3124 78 50.5002ZM78 50.5002C76.8 52.1002 65.8333 63.8336 60.5 69.5002C55.1667 75.1669 46.2117 73.8001 39 69.5002C8.29333 51.1921 49.3541 10.301 68.5 37.0002C70.9511 40.4183 72.9311 42.8163 72.5 47.0002C71.3968 57.7074 56.7806 64.6574 47 63.1842M36.5 58.5002C33.6429 54.9483 33.5378 51.456 34.5 47.0002C35.2567 43.4965 36.3449 41.4084 39 39.0002C41.2639 36.947 43.0469 36.2877 46 35.5002C49.7734 34.494 52.3908 34.0088 56 35.5002C58.8189 36.6651 62 40.5002 62 40.5002M60.5 52.5002C56.532 56.7053 50.4136 59.2345 45 56.0002C25.2904 44.2251 67.9273 38.279 53.5 50.5002" stroke="#C7D9E0" stroke-linecap="round"/>
</svg>
