<svg width="100" height="101" viewBox="0 0 100 101" fill="none" xmlns="http://www.w3.org/2000/svg">
<g id="Frame 12">
<g id="Group 4">
<circle id="Ellipse 1" cx="50" cy="50.66" r="47.5" stroke="white" stroke-width="5"/>
<path id="Vector 4" d="M69 21.66C69 21.66 79.0506 25.1288 83 30.16C87.7083 36.158 87.5 49.16 87.5 49.16" stroke="#A2ACB0" stroke-linecap="round"/>
<path id="Vector 5" d="M56.5 85.16C56.5 85.16 49.4933 87.928 45 87.16C40.6068 86.4092 35 81.66 35 81.66" stroke="#A2ACB0" stroke-linecap="round"/>
<path id="Vector 5_2" d="M19.1562 61.3531C19.1562 61.3531 16.0563 50.8213 16.6102 43.9876C17.1517 37.3061 21.6318 28.66 21.6318 28.66" stroke="#A2ACB0" stroke-linecap="round"/>
<path id="Ellipse 3" d="M78 51.16C78 66.3479 65.6878 78.66 50.5 78.66C35.3122 78.66 23 66.3479 23 51.16C23 35.9722 35.3122 23.66 50.5 23.66C65.6878 23.66 78 35.9722 78 51.16ZM78 51.16C76.8 52.76 65.8333 64.4934 60.5 70.16C55.1667 75.8267 46.2117 74.4599 39 70.16C8.29333 51.8518 49.3541 10.9607 68.5 37.66C70.9511 41.0781 72.9311 43.4761 72.5 47.66C71.3968 58.3672 56.7806 65.3172 47 63.844M36.5 59.16C33.6429 55.6081 33.5378 52.1158 34.5 47.66C35.2567 44.1563 36.3449 42.0682 39 39.66C41.2639 37.6067 43.0469 36.9475 46 36.16C49.7734 35.1538 52.3908 34.6686 56 36.16C58.8189 37.3249 62 41.16 62 41.16M60.5 53.16C56.532 57.3651 50.4136 59.8943 45 56.66C25.2904 44.8849 67.9273 38.9388 53.5 51.16" stroke="#A2ACB0" stroke-linecap="round"/>
</g>
</g>
</svg>
