<svg width="100" height="100" viewBox="0 0 100 100" fill="none" xmlns="http://www.w3.org/2000/svg">
<rect x="2.5" y="2.5" width="95" height="95" rx="47.5" stroke="white" stroke-width="5"/>
<path d="M47.0764 54.969L64.6584 40.2681M47.0764 54.969L59.3838 37.3279L57.7428 31.2319L61.0248 30.7811L59.3838 26.2238L71.4959 21.6665M47.0764 54.969L50.3583 38.5236L32.4246 62.8095L39.2621 44.1883L29.0255 52.1955L33.9484 40.2681L27.3845 42.1694L29.0255 34.3877L23.282 35.7892L24.923 31.2319L20 32.4276V28.9582M64.6584 40.2681L61.7281 50.0687L70.5191 54.969L67.5887 61.8295M64.6584 40.2681L71.4959 41.2575L75.7937 35.7892M67.5887 61.8295H50.9835L72.4726 70.65L52.8198 69.9738L64.6584 75.4425H56.1018L58.5633 79.9998M67.5887 61.8295L71.4959 62.8095L78.3333 58.8893L77.4347 50.3725" stroke="#FFFC47" stroke-width="2" stroke-linecap="square" stroke-linejoin="bevel"/>
</svg>
