<svg width="60" height="60" viewBox="0 0 60 60" fill="none" xmlns="http://www.w3.org/2000/svg">
<rect x="1.5" y="1.5" width="57" height="57" rx="28.5" stroke="white" stroke-width="3"/>
<path d="M28.2458 32.9815L38.795 24.161M28.2458 32.9815L35.6303 22.3968L34.6457 18.7392L36.6149 18.4688L35.6303 15.7344L42.8975 13M28.2458 32.9815L30.215 23.1142L19.4548 37.6858L23.5573 26.5131L17.4153 31.3174L20.3691 24.161L16.4307 25.3017L17.4153 20.6327L13.9692 21.4736L14.9538 18.7392L12 19.4567V17.375M38.795 24.161L37.0368 30.0413L42.3114 32.9815L40.5532 37.0978M38.795 24.161L42.8975 24.7546L45.4762 21.4736M40.5532 37.0978H30.5901L43.4836 42.3901L31.6919 41.9844L38.795 45.2656H33.6611L35.138 48M40.5532 37.0978L42.8975 37.6858L47 35.3337L46.4608 30.2236" stroke="#FFFC47" stroke-linecap="square" stroke-linejoin="bevel"/>
</svg>
