<svg width="136" height="170" viewBox="0 0 136 170" fill="none" xmlns="http://www.w3.org/2000/svg">
<path fill-rule="evenodd" clip-rule="evenodd" d="M1 62.6614L10.3838 70.5929H21.6443L24.6471 64.9276L27.6499 59.2622H32.5294H37.972H43.4146L47.6373 64.9276L51.8599 70.5929H59.5546L71.1905 62.6614V26.0257L64.4342 16.2058L53.549 26.0257H33.6555H17.1401L7.0056 16.2058L1 26.0257V62.6614ZM5.12885 32.8241V27.1588H10.3838V32.8241H5.12885ZM59.5546 32.8241V27.1588H64.4342V32.8241H59.5546ZM16.3894 53.9746V42.644H27.6499V48.687V53.9746H22.0196H16.3894ZM43.4146 53.9746V42.644H53.549V48.687V53.9746H48.4818H43.4146Z" fill="#1DA94D"/>
<path d="M44.1653 74.9363V70.5929H51.8599L47.6373 64.9276L43.4146 59.2622H37.972L38.1597 64.9276H32.5294V59.2622H27.6499L24.6471 64.9276L21.6443 70.5929H27.6499V74.9363H44.1653Z" fill="white"/>
<path d="M32.5294 59.2622V64.9276H38.1597L37.972 59.2622H32.5294Z" fill="black"/>
<path d="M27.6499 74.9363V70.5929H21.6443H10.3838V79.2797H27.6499V74.9363Z" fill="#13873B"/>
<path d="M44.1653 79.2797H59.5546V74.9363V70.5929H51.8599H44.1653V74.9363V79.2797Z" fill="#13873B"/>
<path d="M59.5546 27.1588V32.8241H64.4342V27.1588H59.5546Z" fill="#13873B"/>
<path d="M5.12885 27.1588V32.8241H10.3838V27.1588H5.12885Z" fill="#13873B"/>
<path fill-rule="evenodd" clip-rule="evenodd" d="M16.3894 53.9746V42.644H27.6499V48.687H22.0196V53.9746H16.3894Z" fill="white"/>
<path d="M22.0196 53.9746H27.6499V48.687H22.0196V53.9746Z" fill="black"/>
<path fill-rule="evenodd" clip-rule="evenodd" d="M43.4146 53.9746V42.644H53.549V48.687H48.4818V53.9746H43.4146Z" fill="white"/>
<path d="M48.4818 53.9746H53.549V48.687H48.4818V53.9746Z" fill="black"/>
<path d="M53.549 26.0257L64.4342 16.2058L71.1905 26.0257V62.6614L59.5546 70.5929V74.9363H85.8291H114.356L128.619 46.4208L104.972 7.14133L50.1709 7.1413L33.6555 26.0257H53.549Z" fill="#1DA94D"/>
<path d="M59.5546 79.2797H44.1653V74.9363H27.6499V79.2797H10.3838L17.1702 121.968H121.675L128.994 74.9363H114.356H85.8291H59.5546V79.2797Z" fill="#AD563F"/>
<path d="M24.6471 169H114.356L121.675 121.968H17.1702L24.6471 169Z" fill="#924F3D"/>
<path d="M10.3838 70.5929L1 62.6614V26.0257L7.0056 16.2058M10.3838 70.5929H21.6443M10.3838 70.5929V79.2797M7.0056 16.2058L17.1401 26.0257H33.6555M7.0056 16.2058L2.5014 11.2959M7.0056 16.2058L10.3838 11.2959M64.4342 16.2058L53.549 26.0257H33.6555M64.4342 16.2058L71.1905 26.0257V62.6614L59.5546 70.5929M64.4342 16.2058L60.6807 11.2959M64.4342 16.2058L67.8123 11.2959M59.5546 70.5929H51.8599M59.5546 70.5929V74.9363M44.1653 74.9363V70.5929H51.8599M44.1653 74.9363V79.2797H59.5546V74.9363M44.1653 74.9363H27.6499M27.6499 74.9363V70.5929H21.6443M27.6499 74.9363V79.2797H10.3838M10.3838 79.2797L17.1702 121.968M50.1709 7.1413L33.6555 26.0257M50.1709 7.1413L104.972 7.14133M50.1709 7.1413L46.042 1.75538M50.1709 7.1413L53.9244 1M21.6443 70.5929L24.6471 64.9276M51.8599 70.5929L47.6373 64.9276M32.5294 59.2622H27.6499L24.6471 64.9276M32.5294 59.2622V64.9276H38.1597L37.972 59.2622M32.5294 59.2622H37.972M37.972 59.2622H43.4146L47.6373 64.9276M59.5546 74.9363H85.8291H114.356M22.0196 53.9746H16.3894V42.644H27.6499V48.687M22.0196 53.9746H27.6499V48.687M22.0196 53.9746V48.687H27.6499M48.4818 53.9746H43.4146V42.644H53.549V48.687M48.4818 53.9746H53.549V48.687M48.4818 53.9746V48.687H53.549M47.6373 64.9276L62.9328 58.4086M47.6373 64.9276L59.5546 67.1937M24.6471 64.9276L12.2605 67.1937M24.6471 64.9276L10.3838 58.4086M114.356 74.9363H128.994L121.675 121.968M114.356 74.9363L128.619 46.4208M128.619 46.4208L104.972 7.14133M128.619 46.4208L128.994 37.6357M128.619 46.4208L135 42.644M104.972 7.14133L102.345 1M104.972 7.14133L109.852 1M121.675 121.968L114.356 169H24.6471L17.1702 121.968M121.675 121.968H17.1702M5.12885 27.1588V32.8241H10.3838V27.1588H5.12885ZM59.5546 27.1588V32.8241H64.4342V27.1588H59.5546Z" stroke="black" stroke-width="2" stroke-linecap="round"/>
<rect x="82.4404" y="15.3416" width="4.71831" height="4.7477" fill="black"/>
<rect x="98.2051" y="29.6936" width="4.71831" height="4.7477" fill="black"/>
<rect x="82.4404" y="44.0459" width="4.71831" height="4.7477" fill="black"/>
<rect x="92.1995" y="63.6855" width="4.71831" height="4.7477" fill="black"/>
<rect x="109.466" y="50.8442" width="4.71831" height="4.7477" fill="black"/>
</svg>
