<svg width="134" height="170" viewBox="0 0 134 170" fill="none" xmlns="http://www.w3.org/2000/svg">
<path d="M40.7499 111.373C33.1856 114.887 19.6506 99.8924 24.2499 92.3731C24.8262 91.4308 26.2499 90.3731 26.2499 90.3731C26.746 90.6212 24.5935 94.3702 29.2499 99.3731C32.0213 102.351 48.8797 107.597 40.7499 111.373Z" fill="white"/>
<path d="M80.2499 90.3731C87.1372 98.8306 48.9188 106.321 58.7499 113.373C68.498 120.366 89.1396 104.042 84.7499 92.3731C83.8249 89.9143 80.2499 90.3731 80.2499 90.3731Z" fill="white"/>
<path fill-rule="evenodd" clip-rule="evenodd" d="M92.7499 12.8731C85.8626 8.52037 85.8823 26.8808 77.7499 27.3731C69.7969 27.8544 69.1112 16.6695 61.2499 15.3731C55.1666 14.3698 50.437 14.3677 45.7499 18.3731C41.2842 22.1892 39.4427 26.5547 40.2499 32.3731C41.1258 38.6878 50.6254 38.499 50.7499 44.8731C50.8385 49.4139 45.7499 55.3731 45.7499 55.3731C45.7499 55.3731 33.894 58.3079 29.2499 63.8731C27.4915 65.9801 27.0201 67.5299 25.5913 69.8731C20.6842 74.3348 18.4692 77.9675 16.7499 84.3731C14.6143 92.3296 14.8873 98.0966 18.7499 105.373C22.3844 112.22 26.8901 114.763 33.7499 118.373C41.3783 122.388 46.6297 123.428 55.2499 123.373C66.5496 123.301 74.4437 122.034 82.7499 114.373C88.2883 109.265 91.2678 105.261 92.7499 97.8731C94.392 89.6877 91.5899 84.7236 88.7499 76.8731C85.7754 68.6512 77.7499 57.3731 77.7499 57.3731C77.7499 57.3731 72.831 49.9154 73.7499 44.8731C74.345 41.6074 75.3746 39.6919 77.7499 37.3731C82.0245 33.2 88.2918 38.3496 92.7499 34.3731C96.6734 30.8733 98.4136 27.0886 97.7499 21.8731C97.2422 17.8845 96.1487 15.0211 92.7499 12.8731ZM40.7499 111.373C48.8797 107.597 32.0213 102.351 29.2499 99.3731C24.5935 94.3702 26.746 90.6212 26.2499 90.3731C26.2499 90.3731 24.8262 91.4308 24.2499 92.3731C19.6506 99.8924 33.1856 114.887 40.7499 111.373ZM80.2499 90.3731C80.2499 90.3731 83.8249 89.9143 84.7499 92.3731C89.1396 104.042 68.498 120.366 58.7499 113.373C48.9188 106.321 87.1372 98.8306 80.2499 90.3731Z" fill="black"/>
<path d="M78.7499 1.37305C76.5958 1.9357 75.0157 2.78258 74.2499 4.87305C73.1985 7.74288 74.9569 10.6318 77.7499 11.8731C79.5342 12.6661 81.0105 12.7605 82.7499 11.8731C84.7782 10.8382 85.6128 9.14605 85.7499 6.87305C85.8765 4.77383 85.4566 3.10181 83.7499 1.87305C82.1573 0.726492 80.6485 0.877117 78.7499 1.37305Z" fill="black"/>
<path d="M38.2499 160.373C38.2499 160.373 30.5348 150.926 25.5913 144.873C22.9196 150.34 19.0014 152.793 18.7499 158.873C18.6357 161.632 18.0118 163.727 19.7499 165.873C21.0152 167.435 22.3021 167.875 24.2499 168.373C27.1127 169.105 28.9342 168.269 31.7499 167.373C34.2462 166.579 36.5329 166.693 37.7499 164.373C38.4812 162.979 38.2499 160.373 38.2499 160.373Z" fill="black"/>
<path d="M99.7499 160.373L91.2499 158.873C91.2499 158.873 95.702 164.422 99.7499 165.873C103.794 167.323 106.756 167.456 110.75 165.873C113.727 164.693 116.119 163.869 117.25 160.873V155.373L113.583 152.873L111.75 155.873L99.7499 160.373Z" fill="black"/>
<path d="M18.7499 105.373C14.8873 98.0966 14.6143 92.3296 16.7499 84.3731C18.4692 77.9675 20.6842 74.3348 25.5913 69.8731C19.9906 72.6067 16.0087 72.8488 11.2499 76.8731C5.87404 81.4191 1.24986 91.8731 1.24986 91.8731L2.74986 103.873C2.74986 103.873 6.8709 109.917 7.74986 114.373C8.89356 120.171 4.05892 123.71 5.74986 129.373C7.33798 134.691 10.2175 137.169 14.7499 140.373C18.4931 143.019 21.0745 144.091 25.5913 144.873C30.5348 150.926 38.2499 160.373 38.2499 160.373C38.2499 160.373 45.2218 166.511 50.7499 167.373C56.6933 168.3 59.8647 165.117 65.7499 163.873C73.1315 162.312 84.7499 160.373 84.7499 160.373L91.2499 158.873L99.7499 160.373L111.75 155.873L113.583 152.873L117.25 146.873C117.25 146.873 118.659 138.835 120.25 133.873C123.476 123.81 132.697 120.441 132.75 109.873C132.78 103.811 130.498 100.678 128.75 94.8731C127.147 89.5518 125.045 86.8731 124.25 81.3731C123.607 76.9283 126.33 73.8531 124.25 69.8731C122.582 66.6822 120.532 65.354 117.25 63.8731C112.444 61.7046 108.957 64.6977 103.75 63.8731C98.6875 63.0714 95.9464 61.9255 91.2499 59.8731C87.8082 58.369 82.7499 55.3731 82.7499 55.3731L77.7499 57.3731C77.7499 57.3731 85.7754 68.6512 88.7499 76.8731C91.5899 84.7236 94.392 89.6877 92.7499 97.8731C91.2678 105.261 88.2883 109.265 82.7499 114.373C74.4437 122.034 66.5496 123.301 55.2499 123.373C46.6297 123.428 41.3783 122.388 33.7499 118.373C26.8901 114.763 22.3844 112.22 18.7499 105.373Z" fill="#16364E"/>
<path d="M77.7499 57.3731C77.7499 57.3731 85.7754 68.6512 88.7499 76.8731C91.5899 84.7236 94.392 89.6877 92.7499 97.8731C91.2678 105.261 88.2883 109.265 82.7499 114.373C74.4437 122.034 66.5496 123.301 55.2499 123.373C46.6297 123.428 41.3783 122.388 33.7499 118.373C26.8901 114.763 22.3844 112.22 18.7499 105.373C14.8873 98.0966 14.6143 92.3296 16.7499 84.3731C18.4692 77.9675 20.6842 74.3348 25.5913 69.8731M77.7499 57.3731C77.7499 57.3731 72.831 49.9154 73.7499 44.8731C74.345 41.6074 75.3746 39.6919 77.7499 37.3731C82.0245 33.2 88.2918 38.3496 92.7499 34.3731C96.6734 30.8733 98.4136 27.0886 97.7499 21.8731C97.2422 17.8845 96.1487 15.0211 92.7499 12.8731C85.8626 8.52037 85.8823 26.8808 77.7499 27.3731C69.7969 27.8544 69.1112 16.6695 61.2499 15.3731C55.1666 14.3698 50.437 14.3677 45.7499 18.3731C41.2842 22.1892 39.4427 26.5547 40.2499 32.3731C41.1258 38.6878 50.6254 38.499 50.7499 44.8731C50.8385 49.4139 45.7499 55.3731 45.7499 55.3731C45.7499 55.3731 33.894 58.3079 29.2499 63.8731C27.4915 65.9801 27.0201 67.5299 25.5913 69.8731M77.7499 57.3731L82.7499 55.3731C82.7499 55.3731 87.8082 58.369 91.2499 59.8731C95.9464 61.9255 98.6875 63.0714 103.75 63.8731C108.957 64.6977 112.444 61.7046 117.25 63.8731C120.532 65.354 122.582 66.6822 124.25 69.8731C126.33 73.8531 123.607 76.9283 124.25 81.3731C125.045 86.8731 127.147 89.5518 128.75 94.8731C130.498 100.678 132.78 103.811 132.75 109.873C132.697 120.441 123.476 123.81 120.25 133.873C118.659 138.835 117.25 146.873 117.25 146.873L113.583 152.873M25.5913 69.8731C19.9906 72.6067 16.0087 72.8488 11.2499 76.8731C5.87404 81.4191 1.24986 91.8731 1.24986 91.8731L2.74986 103.873C2.74986 103.873 6.8709 109.917 7.74986 114.373C8.89356 120.171 4.05892 123.71 5.74986 129.373C7.33798 134.691 10.2175 137.169 14.7499 140.373C18.4931 143.019 21.0745 144.091 25.5913 144.873M25.5913 144.873C30.5348 150.926 38.2499 160.373 38.2499 160.373M25.5913 144.873C22.9196 150.34 19.0014 152.793 18.7499 158.873C18.6357 161.632 18.0118 163.727 19.7499 165.873C21.0152 167.435 22.3021 167.875 24.2499 168.373C27.1127 169.105 28.9342 168.269 31.7499 167.373C34.2462 166.579 36.5329 166.693 37.7499 164.373C38.4812 162.979 38.2499 160.373 38.2499 160.373M38.2499 160.373C38.2499 160.373 45.2218 166.511 50.7499 167.373C56.6933 168.3 59.8647 165.117 65.7499 163.873C73.1315 162.312 84.7499 160.373 84.7499 160.373L91.2499 158.873M91.2499 158.873L99.7499 160.373L111.75 155.873L113.583 152.873M91.2499 158.873C91.2499 158.873 95.702 164.422 99.7499 165.873C103.794 167.323 106.756 167.456 110.75 165.873C113.727 164.693 116.119 163.869 117.25 160.873V155.373L113.583 152.873M78.7499 1.37305C76.5958 1.9357 75.0157 2.78258 74.2499 4.87305C73.1985 7.74288 74.9569 10.6318 77.7499 11.8731C79.5342 12.6661 81.0105 12.7605 82.7499 11.8731C84.7782 10.8382 85.6128 9.14605 85.7499 6.87305C85.8765 4.77383 85.4566 3.10181 83.7499 1.87305C82.1573 0.726492 80.6485 0.877117 78.7499 1.37305ZM26.2499 90.3731C26.2499 90.3731 24.8262 91.4308 24.2499 92.3731C19.6506 99.8924 33.1856 114.887 40.7499 111.373C48.8797 107.597 32.0213 102.351 29.2499 99.3731C24.5935 94.3702 26.746 90.6212 26.2499 90.3731ZM80.2499 90.3731C80.2499 90.3731 83.8249 89.9143 84.7499 92.3731C89.1396 104.042 68.498 120.366 58.7499 113.373C48.9188 106.321 87.1372 98.8306 80.2499 90.3731Z" stroke="black"/>
<path d="M62 105V115" stroke="black" stroke-width="3" stroke-linecap="round"/>
<path d="M37.2499 105.373V110.373" stroke="black" stroke-width="3" stroke-linecap="round"/>
</svg>
