<svg width="134" height="168" viewBox="0 0 136 171" fill="none" xmlns="http://www.w3.org/2000/svg">
<path d="M33.0255 142.352C33.0255 142.352 7.55001 129.285 2.82898 113.966C1.21446 108.727 0.844904 105.53 1.0527 100.062C1.30901 93.3175 5.19733 83.2621 5.19733 83.2621C5.19733 83.2621 6.70426 98.4512 9.93404 107.593C15.3399 122.894 33.0255 142.352 33.0255 142.352Z" fill="black"/>
<path fill-rule="evenodd" clip-rule="evenodd" d="M63.8141 45.0276L90.4581 55.4552L123.023 61.8276C115.523 56.0345 99.8131 44.1007 96.9711 42.7103C94.129 41.32 82.942 34.6824 80.3926 25.9103C77.5692 16.1957 87.4977 1 87.4977 1C87.4977 1 71.8193 9.82573 63.8141 17.8C58.2719 23.3208 57.7288 28.8262 51.3802 33.4414C42.3771 39.9863 33.6036 35.5236 23.5521 40.3931C17.8621 43.1496 9.93404 49.0828 9.93404 49.0828L20.5916 50.7121C34.8554 45.3689 48.5981 43.6367 63.8141 45.0276Z" fill="#243F66"/>
<path d="M63.8141 45.0276L51.3802 44.4539L47.8277 54.8759L20.5916 50.7121C34.8554 45.3689 48.5981 43.6367 63.8141 45.0276Z" fill="black"/>
<path d="M128.352 133.662C125.112 137.695 118.286 142.352 118.286 142.352C118.286 142.352 117.559 134.533 118.286 129.607C120.153 116.97 134.865 101.221 134.865 101.221C134.865 101.221 136.506 123.511 128.352 133.662Z" fill="black"/>
<path d="M78.0242 78.0483C78.0242 78.0483 80.1887 71.9486 82.7609 68.7793C85.2097 65.7623 90.4581 62.4069 90.4581 62.4069L82.7609 83.2621L78.0242 78.0483Z" fill="black"/>
<path d="M67.9587 78.0483H78.0242L82.7609 83.2621H46.0514L51.3802 78.0483H59.6695H63.8141H67.9587Z" fill="black"/>
<path d="M53.1565 51.9793C53.1565 51.9793 51.3509 56.3591 53.1565 57.7724C54.601 58.903 56.4488 58.903 57.8932 57.7724C59.6988 56.3591 57.8932 51.9793 57.8932 51.9793H53.1565Z" fill="black"/>
<path fill-rule="evenodd" clip-rule="evenodd" d="M82.7609 68.7793C85.2097 65.7623 90.4581 62.4069 90.4581 62.4069V55.4552L63.8141 45.0276L51.3802 44.4539L47.8277 54.8759L49.0119 64.1448L51.3802 78.0483H59.6695H63.8141H67.9587H78.0242C78.0242 78.0483 80.1887 71.9486 82.7609 68.7793ZM53.1565 51.9793C53.1565 51.9793 51.3509 56.3591 53.1565 57.7724C54.601 58.903 56.4488 58.903 57.8932 57.7724C59.6988 56.3591 57.8932 51.9793 57.8932 51.9793H53.1565ZM72.6954 57.7724C74.4141 56.259 72.6954 51.9793 72.6954 51.9793H67.3666C67.3666 51.9793 65.648 56.259 67.3666 57.7724C68.9135 59.1345 71.1486 59.1345 72.6954 57.7724Z" fill="#61D3E3"/>
<path d="M72.6954 51.9793C72.6954 51.9793 74.4141 56.259 72.6954 57.7724C71.1486 59.1345 68.9135 59.1345 67.3666 57.7724C65.648 56.259 67.3666 51.9793 67.3666 51.9793H72.6954Z" fill="black"/>
<path d="M72.6954 110.49C72.6954 109.099 78.8137 150.04 82.7609 168.078L69.4389 168.249C69.9741 149.881 72.6954 124.773 72.6954 110.49Z" fill="black"/>
<path d="M41.9068 141.193C45.4246 130.881 56.117 96.0069 56.117 96.0069C56.117 96.0069 36.9136 115.929 33.0255 120.917C27.8377 127.573 33.0255 142.352 33.0255 142.352C33.0255 142.352 15.3399 122.894 9.93404 107.593C6.70426 98.4512 5.19733 83.2621 5.19733 83.2621C5.19733 83.2621 18.458 89.8723 27.6967 90.7931C28.728 90.8959 29.6678 91.0431 30.5572 91.1825C33.2385 91.6026 35.4616 91.9509 38.3543 90.7931C42.2888 89.2183 46.0514 83.2621 46.0514 83.2621H82.7609L90.4581 62.4069C90.4581 62.4069 96.3304 70.0413 100.524 74.5724C106.892 81.4544 110.743 85.1617 118.286 90.7931C124.405 95.361 134.865 101.221 134.865 101.221C134.865 101.221 120.153 116.97 118.286 129.607C117.559 134.533 118.286 142.352 118.286 142.352L94.0106 98.3241C97.3807 115.811 92.3607 129.179 103.484 145.828C109.57 157.52 127 167.841 127 167.841H101.116L82.7609 168.078C78.8137 150.04 72.6954 109.099 72.6954 110.49C72.6954 124.773 69.9741 149.881 69.4389 168.249L56.117 168.421L28.2888 169C28.2888 169 38.0103 152.615 41.9068 141.193Z" fill="#305182"/>
<path d="M33.0255 142.352C33.0255 142.352 27.8377 127.573 33.0255 120.917C36.9136 115.929 56.117 96.0069 56.117 96.0069C56.117 96.0069 45.4246 130.881 41.9068 141.193C38.0103 152.615 28.2888 169 28.2888 169L56.117 168.421L69.4389 168.249M33.0255 142.352C33.0255 142.352 7.55001 129.285 2.82898 113.966C1.21446 108.727 0.844904 105.53 1.0527 100.062C1.30901 93.3175 5.19733 83.2621 5.19733 83.2621M33.0255 142.352C33.0255 142.352 15.3399 122.894 9.93404 107.593C6.70426 98.4512 5.19733 83.2621 5.19733 83.2621M5.19733 83.2621C5.19733 83.2621 18.458 89.8723 27.6967 90.7931C28.728 90.8959 29.6678 91.0431 30.5572 91.1825C33.2385 91.6026 35.4616 91.9509 38.3543 90.7931C42.2888 89.2183 46.0514 83.2621 46.0514 83.2621M51.3802 78.0483L49.0119 64.1448L47.8277 54.8759M51.3802 78.0483H59.6695M51.3802 78.0483L46.0514 83.2621M78.0242 78.0483H67.9587M78.0242 78.0483C78.0242 78.0483 80.1887 71.9486 82.7609 68.7793C85.2097 65.7623 90.4581 62.4069 90.4581 62.4069M78.0242 78.0483L82.7609 83.2621M90.4581 62.4069V55.4552M90.4581 62.4069C90.4581 62.4069 96.3304 70.0413 100.524 74.5724C106.892 81.4544 110.743 85.1617 118.286 90.7931C124.405 95.361 134.865 101.221 134.865 101.221M90.4581 62.4069L82.7609 83.2621M90.4581 55.4552L63.8141 45.0276M90.4581 55.4552L123.023 61.8276C115.523 56.0345 99.8131 44.1007 96.9711 42.7103C94.129 41.32 82.942 34.6824 80.3926 25.9103C77.5692 16.1957 87.4977 1 87.4977 1C87.4977 1 71.8193 9.82573 63.8141 17.8C58.2719 23.3208 57.7288 28.8262 51.3802 33.4414C42.3771 39.9863 33.6036 35.5236 23.5521 40.3931C17.8621 43.1496 9.93404 49.0828 9.93404 49.0828L20.5916 50.7121M63.8141 45.0276L51.3802 44.4539L47.8277 54.8759M63.8141 45.0276C48.5981 43.6367 34.8554 45.3689 20.5916 50.7121M118.286 142.352L94.0106 98.3241C97.3807 115.811 92.3607 129.179 103.484 145.828C109.57 157.52 127 167.841 127 167.841H101.116L82.7609 168.078M118.286 142.352C118.286 142.352 125.112 137.695 128.352 133.662C136.506 123.511 134.865 101.221 134.865 101.221M118.286 142.352C118.286 142.352 117.559 134.533 118.286 129.607C120.153 116.97 134.865 101.221 134.865 101.221M47.8277 54.8759L20.5916 50.7121M67.9587 71.6759V78.0483M67.9587 78.0483H63.8141M63.8141 71.6759V78.0483M63.8141 78.0483H59.6695M59.6695 71.6759V78.0483M63.8141 62.4069V64.7241M60.3968 62.4069V64.7241M82.7609 83.2621H46.0514M82.7609 168.078C78.8137 150.04 72.6954 109.099 72.6954 110.49C72.6954 124.773 69.9741 149.881 69.4389 168.249M82.7609 168.078L69.4389 168.249M72.6954 51.9793C72.6954 51.9793 74.4141 56.259 72.6954 57.7724C71.1486 59.1345 68.9135 59.1345 67.3666 57.7724C65.648 56.259 67.3666 51.9793 67.3666 51.9793H72.6954ZM53.1565 51.9793C53.1565 51.9793 51.3509 56.3591 53.1565 57.7724C54.601 58.903 56.4488 58.903 57.8932 57.7724C59.6988 56.3591 57.8932 51.9793 57.8932 51.9793H53.1565Z" stroke="black" stroke-width="2" stroke-linecap="round"/>
</svg>
