<svg width="134" height="168" viewBox="0 0 144 173" fill="none" xmlns="http://www.w3.org/2000/svg">
<path d="M82.1395 75.0692H52.3175L55.1009 94.7172L61.8843 136.365H66.2582H77.7893H87.73H93.6944L85.9169 94.7172L82.1395 75.0692Z" fill="#32C7F7"/>
<path d="M52.3175 75.0692L39.9911 82.5752L22.4599 112.055L39.9555 123.976L55.1009 94.7172L52.3175 75.0692Z" fill="#39F9FE"/>
<path d="M82.1395 75.0692L85.9169 94.7172L106.863 116.976L124.359 105.055L101.226 83.8998L82.1395 75.0692Z" fill="#39F9FE"/>
<path d="M35.6172 24.7351V55.642H51.1246V24.7351H35.6172Z" fill="white"/>
<path d="M59.4748 24.7351V55.642H74.9822V24.7351H59.4748Z" fill="white"/>
<path d="M77.7893 136.365H66.2582L80.1869 169.117L88.9347 163.819L77.7893 136.365Z" fill="#39F9FE"/>
<path d="M92.911 170L101.659 162.053L87.73 136.365H77.7893L88.9347 163.819L92.911 170Z" fill="#39F9FE"/>
<path fill-rule="evenodd" clip-rule="evenodd" d="M97.0504 75.0692V11.4892H27.6647V60.9403V68.0048V75.0692H39.9911H52.3175H82.1395H97.0504ZM35.6172 55.642V24.7351H51.1246V55.642H35.6172ZM59.4748 55.642V24.7351H74.9822V55.642H59.4748Z" fill="#32C7F7"/>
<path fill-rule="evenodd" clip-rule="evenodd" d="M82.1395 75.0692H97.0504L119.119 80.8091L112.359 73.7446L117.131 60.9403L104.804 66.6802V58.2912L126.674 49.9021L118.721 72.42L139 90.5227L101.226 83.8998L82.1395 75.0692Z" fill="#055689"/>
<path fill-rule="evenodd" clip-rule="evenodd" d="M39.9911 75.0692H52.3175L39.9911 82.5752L5.79525 94.0549L21.3027 72.42L5 53.8759L27.6647 60.9403V68.0048L21.3027 64.9385L26.5 72.6906L18.5193 83.8998L39.9911 75.0692Z" fill="#055689"/>
<path d="M104.804 69.5543L97.0504 75.0692L119.119 80.8091L112.359 73.7446L117.131 60.9403L104.804 66.6802V69.5543Z" fill="#102F65"/>
<path d="M27.6647 75.0692V68.0048L21.3027 64.9385L26.5 72.6906L18.5193 83.8998L39.9911 75.0692H27.6647Z" fill="#102F65"/>
<path d="M97.0504 75.0692L104.804 69.5543V66.6802V58.2912L103.807 2.00003L97.0504 11.4892V75.0692Z" fill="#055689"/>
<path d="M32.4264 2L27.6647 11.4892H97.0504L103.807 2.00003L32.4264 2Z" fill="#3EF5FD"/>
<path d="M103.807 2.00003L104.804 58.2912M103.807 2.00003L32.4264 2L27.6647 11.4892M103.807 2.00003L97.0504 11.4892M52.3175 75.0692H82.1395M52.3175 75.0692L55.1009 94.7172M52.3175 75.0692L39.9911 82.5752M52.3175 75.0692H39.9911M82.1395 75.0692H97.0504M82.1395 75.0692L85.9169 94.7172M82.1395 75.0692L101.226 83.8998M77.7893 136.365H87.73M77.7893 136.365H66.2582M77.7893 136.365L88.9347 163.819M87.73 136.365H93.6944L85.9169 94.7172M87.73 136.365L101.659 162.053L92.911 170L88.9347 163.819M66.2582 136.365H61.8843L55.1009 94.7172M66.2582 136.365L80.1869 169.117L88.9347 163.819M55.1009 94.7172L39.9555 123.976L22.4599 112.055L39.9911 82.5752M97.0504 75.0692L104.804 69.5543V66.6802M97.0504 75.0692V11.4892M97.0504 75.0692L119.119 80.8091L112.359 73.7446L117.131 60.9403L104.804 66.6802M85.9169 94.7172L106.863 116.976L124.359 105.055L101.226 83.8998M104.804 58.2912L126.674 49.9021L118.721 72.42L139 90.5227L101.226 83.8998M104.804 58.2912V66.6802M27.6647 60.9403L5 53.8759L21.3027 72.42L5.79525 94.0549L39.9911 82.5752M27.6647 60.9403V11.4892M27.6647 60.9403V68.0048M27.6647 11.4892H97.0504M27.6647 68.0048V75.0692H39.9911M27.6647 68.0048L21.3027 64.9385L26.5 72.6906L18.5193 83.8998L39.9911 75.0692M35.6172 24.7351V55.642H51.1246V24.7351H35.6172ZM59.4748 24.7351V55.642H74.9822V24.7351H59.4748Z" stroke="#102F65" stroke-width="3" stroke-linecap="round"/>
</svg>
