<svg width="134" height="168" viewBox="0 0 136 170" fill="none" xmlns="http://www.w3.org/2000/svg">
<path fill-rule="evenodd" clip-rule="evenodd" d="M65.5069 1L62.9483 21.984L59.077 53.7333L46.2171 45.8V63.3L23.6085 52.2167L1 41.1333L20.3936 58.1667L39.7871 75.2L30.2459 83.25L20.7047 91.3L39.7871 96.2L20.7047 112.562L5.77061 125.367L23.6085 117.752L46.2171 108.1V125.367L59.077 116.5L63.2884 150.886L65.5069 169L76.5 116.5L88.7377 125.367V108.1L108.961 118.25L129.184 128.4L112.176 112.3L95.1676 96.2L106.783 84.0667L95.1676 75.2L119.773 54.1565L135 41.1333L118.25 48.0609L88.7377 60.2667V45.8L76.5 53.7333L69.8814 21.984L65.5069 1ZM86.6635 72.8667H66.4403H46.2171L61.5284 101.833L66.858 111.916L71.9718 101.833L86.6635 72.8667Z" fill="#32C7F7"/>
<path d="M86.6635 72.8667H66.4403L74.8523 80.6537L86.6635 72.8667Z" fill="white"/>
<path d="M46.2171 72.8667L57.7216 80.6537L66.4403 72.8667H46.2171Z" fill="white"/>
<path d="M61.5284 101.833L66.858 111.916L71.9718 101.833L66.858 95.6423L61.5284 101.833Z" fill="white"/>
<path d="M57.7216 80.6537L46.2171 72.8667L61.5284 101.833L66.858 95.6423L71.9718 101.833L86.6635 72.8667L74.8523 80.6537L66.4403 72.8667L57.7216 80.6537Z" fill="#055689"/>
<path d="M46.2171 72.8667L57.7216 80.6537L66.4403 72.8667M46.2171 72.8667H66.4403M46.2171 72.8667L61.5284 101.833M86.6635 72.8667H66.4403M86.6635 72.8667L74.8523 80.6537L66.4403 72.8667M86.6635 72.8667L71.9718 101.833M61.5284 101.833L66.858 111.916L71.9718 101.833M61.5284 101.833L66.858 95.6423L71.9718 101.833M20.3936 58.1667L1 41.1333L23.6085 52.2167M20.3936 58.1667L39.7871 75.2L30.2459 83.25L20.7047 91.3L39.7871 96.2L20.7047 112.562M20.3936 58.1667L6.71023 60.2667M23.6085 52.2167L46.2171 63.3V45.8L59.077 53.7333L62.9483 21.984M23.6085 52.2167L20.7047 37.8291M20.7047 112.562L5.77061 125.367L23.6085 117.752M20.7047 112.562L8.61364 110.203M23.6085 117.752L46.2171 108.1V125.367L59.077 116.5L63.2884 150.886M23.6085 117.752L18.1307 128.4M63.2884 150.886L65.5069 169L76.5 116.5L88.7377 125.367V108.1L108.961 118.25M63.2884 150.886L55.8182 161.164M69.3895 150.458L76.5 161.164M108.961 118.25L129.184 128.4L112.176 112.3M108.961 118.25L114.824 131.615M112.176 112.3L95.1676 96.2L106.783 84.0667L95.1676 75.2L119.773 54.1565M112.176 112.3L126.244 110.203M118.25 48.0609L135 41.1333L119.773 54.1565M118.25 48.0609L88.7377 60.2667V45.8L76.5 53.7333L69.8814 21.984M118.25 48.0609L119.773 33.5467M119.773 54.1565L132.335 58.1667M62.9483 21.984L65.5069 1L69.8814 21.984M62.9483 21.984L55.8182 9.56492M69.8814 21.984L76.5 9.56492" stroke="#102F65" stroke-width="3"/>
<path d="M82.4544 60.2693L74.8408 65.4082" stroke="#102F65" stroke-width="3" stroke-linecap="square"/>
<path d="M51.4633 60.2664L59.077 65.4053" stroke="#102F65" stroke-width="3" stroke-linecap="square"/>
<rect x="57.3409" y="63.5239" width="2.28409" height="2.56947" fill="white"/>
<rect x="74.0909" y="63.5239" width="2.28409" height="2.56947" fill="white"/>
</svg>
