<svg width="60" height="60" viewBox="0 0 60 60" fill="none" xmlns="http://www.w3.org/2000/svg">
<rect x="1.5" y="1.5" width="57" height="57" rx="28.5" stroke="white" stroke-width="3"/>
<path d="M34.6624 19.054C34.2006 15.55 34.5306 12.3325 34.5306 12.3325C34.5306 12.3325 34.9941 15.5513 34.6624 19.054C35.0526 22.0138 36.0077 25.1779 38.2041 26.7799C41.3347 29.0633 48 28.9115 48 28.9115C48 28.9115 41.1047 30.427 38.2041 33.4115C35.1306 36.5739 34.6279 43.3553 34.5463 45.6558C34.5441 46.1504 34.5306 46.4378 34.5306 46.4378C34.5306 46.4378 34.5287 46.1503 34.5463 45.6558C34.5561 43.3616 34.3202 36.6091 31.3469 33.4115C28.7438 30.6119 22.5306 28.9115 22.5306 28.9115C22.5306 28.9115 28.5125 28.8453 31.3469 26.7799C33.5311 25.1883 34.3817 22.0194 34.6624 19.054Z" fill="#FEFB30"/>
<path d="M22.5306 34.3588C22.5306 34.3588 22.5361 34.4141 22.5431 34.5141C22.6098 35.2562 22.9805 38.4611 24.4898 39.8062C25.371 40.5916 27.1837 41.2273 27.1837 41.2273C27.1837 41.2273 25.3536 42.1814 24.4898 43.122C23.0031 44.7409 22.5306 48.3325 22.5306 48.3325C22.5306 48.3325 22.7135 44.7037 21.3061 43.122C20.3003 41.9915 17.8776 41.2273 17.8776 41.2273C17.8776 41.2273 20.2612 40.7878 21.3061 39.8062C22.7294 38.4693 22.595 35.2572 22.5431 34.5141C22.5341 34.4141 22.5306 34.3588 22.5306 34.3588Z" fill="#FEFB30"/>
<path d="M17.3878 28.6746C17.3878 28.6746 17.371 28.4715 17.3621 28.1356C17.2826 26.9574 16.9606 24.1472 15.6735 22.7536C14.5589 21.5469 12 20.622 12 20.622C12 20.622 14.4687 20.5137 15.6735 19.6746C16.5984 19.0305 17.0459 17.7693 17.2551 16.536C17.1024 14.8812 17.3878 13.2799 17.3878 13.2799C17.3878 13.2799 17.5355 14.8829 17.2551 16.536C17.3683 17.7632 17.7224 19.0198 18.6122 19.6746C19.7938 20.5441 22.2857 20.622 22.2857 20.622C22.2857 20.622 19.685 21.512 18.6122 22.7536C17.3964 24.1609 17.3311 26.9605 17.3621 28.1356C17.3848 28.4714 17.3878 28.6746 17.3878 28.6746Z" fill="#FEFB30"/>
<path d="M34.5306 12.3325C34.5306 12.3325 33.4075 23.2814 38.2041 26.7799C41.3347 29.0633 48 28.9115 48 28.9115C48 28.9115 41.1047 30.427 38.2041 33.4115C34.47 37.2536 34.5306 46.4378 34.5306 46.4378C34.5306 46.4378 34.9611 37.2983 31.3469 33.4115C28.7438 30.6119 22.5306 28.9115 22.5306 28.9115C22.5306 28.9115 28.5125 28.8453 31.3469 26.7799C36.1109 23.3084 34.5306 12.3325 34.5306 12.3325ZM22.5306 34.3588C22.5306 34.3588 22.9209 38.2894 21.3061 39.8062C20.2612 40.7878 17.8776 41.2273 17.8776 41.2273C17.8776 41.2273 20.3003 41.9915 21.3061 43.122C22.7135 44.7037 22.5306 48.3325 22.5306 48.3325C22.5306 48.3325 23.0031 44.7409 24.4898 43.122C25.3536 42.1814 27.1837 41.2273 27.1837 41.2273C27.1837 41.2273 25.371 40.5916 24.4898 39.8062C22.7772 38.2798 22.5306 34.3588 22.5306 34.3588ZM17.3878 28.6746C17.3878 28.6746 17.0488 24.5631 18.6122 22.7536C19.685 21.512 22.2857 20.622 22.2857 20.622C22.2857 20.622 19.7938 20.5441 18.6122 19.6746C16.5223 18.1367 17.3878 13.2799 17.3878 13.2799C17.3878 13.2799 17.8382 18.167 15.6735 19.6746C14.4687 20.5137 12 20.622 12 20.622C12 20.622 14.5589 21.5469 15.6735 22.7536C17.3276 24.5444 17.3878 28.6746 17.3878 28.6746Z" stroke="#F69931" stroke-linecap="round"/>
</svg>
