<svg width="100" height="100" viewBox="0 0 100 100" fill="none" xmlns="http://www.w3.org/2000/svg">
<rect x="2.5" y="2.5" width="95" height="95" rx="47.5" stroke="white" stroke-width="5"/>
<path d="M57.7707 31.7567C57.0009 25.9168 57.551 20.5542 57.551 20.5542C57.551 20.5542 58.3234 25.9188 57.7707 31.7567C58.4209 36.6896 60.0128 41.9632 63.6735 44.6331C68.8912 48.4388 80 48.1858 80 48.1858C80 48.1858 68.5078 50.7116 63.6735 55.6858C58.551 60.9564 57.7132 72.2589 57.5771 76.0931C57.5736 76.9173 57.551 77.3963 57.551 77.3963C57.551 77.3963 57.5479 76.9172 57.5771 76.0931C57.5935 72.2693 57.2003 61.0151 52.2449 55.6858C47.9063 51.0198 37.551 48.1858 37.551 48.1858C37.551 48.1858 47.5209 48.0756 52.2449 44.6331C55.8851 41.9805 57.3028 36.699 57.7707 31.7567Z" fill="#FEFB30"/>
<path d="M37.551 57.2647C37.551 57.2647 37.5602 57.3569 37.5718 57.5235C37.6831 58.7603 38.3009 64.1017 40.8163 66.3437C42.285 67.6527 45.3061 68.7121 45.3061 68.7121C45.3061 68.7121 42.256 70.3023 40.8163 71.87C38.3385 74.5682 37.551 80.5542 37.551 80.5542C37.551 80.5542 37.8558 74.5062 35.5102 71.87C33.8338 69.9859 29.7959 68.7121 29.7959 68.7121C29.7959 68.7121 33.7686 67.9796 35.5102 66.3437C37.8823 64.1155 37.6583 58.7619 37.5718 57.5235C37.5568 57.3569 37.551 57.2647 37.551 57.2647Z" fill="#FEFB30"/>
<path d="M28.9796 47.791C28.9796 47.791 28.9517 47.4524 28.9369 46.8926C28.8044 44.9291 28.2678 40.2453 26.1224 37.9226C24.2649 35.9115 20 34.37 20 34.37C20 34.37 24.1144 34.1895 26.1224 32.791C27.664 31.7174 28.4098 29.6155 28.7585 27.5601C28.504 24.802 28.9796 22.1331 28.9796 22.1331C28.9796 22.1331 29.2258 24.8049 28.7585 27.5601C28.9472 29.6053 29.5373 31.6996 31.0204 32.791C32.9896 34.2402 37.1429 34.37 37.1429 34.37C37.1429 34.37 32.8083 35.8533 31.0204 37.9226C28.9939 40.2682 28.8851 44.9341 28.9369 46.8926C28.9747 47.4524 28.9796 47.791 28.9796 47.791Z" fill="#FEFB30"/>
<path d="M57.551 20.5542C57.551 20.5542 55.6792 38.8024 63.6735 44.6331C68.8912 48.4388 80 48.1858 80 48.1858C80 48.1858 68.5078 50.7116 63.6735 55.6858C57.4499 62.0893 57.551 77.3963 57.551 77.3963C57.551 77.3963 58.2684 62.1639 52.2449 55.6858C47.9063 51.0198 37.551 48.1858 37.551 48.1858C37.551 48.1858 47.5209 48.0756 52.2449 44.6331C60.1849 38.8473 57.551 20.5542 57.551 20.5542ZM37.551 57.2647C37.551 57.2647 38.2015 63.8157 35.5102 66.3437C33.7686 67.9796 29.7959 68.7121 29.7959 68.7121C29.7959 68.7121 33.8338 69.9859 35.5102 71.87C37.8558 74.5062 37.551 80.5542 37.551 80.5542C37.551 80.5542 38.3385 74.5682 40.8163 71.87C42.256 70.3023 45.3061 68.7121 45.3061 68.7121C45.3061 68.7121 42.285 67.6527 40.8163 66.3437C37.962 63.7997 37.551 57.2647 37.551 57.2647ZM28.9796 47.791C28.9796 47.791 28.4147 40.9386 31.0204 37.9226C32.8083 35.8533 37.1429 34.37 37.1429 34.37C37.1429 34.37 32.9896 34.2402 31.0204 32.791C27.5372 30.2278 28.9796 22.1331 28.9796 22.1331C28.9796 22.1331 29.7303 30.2783 26.1224 32.791C24.1144 34.1895 20 34.37 20 34.37C20 34.37 24.2649 35.9115 26.1224 37.9226C28.8793 40.9073 28.9796 47.791 28.9796 47.791Z" stroke="#F69931" stroke-width="2" stroke-linecap="round"/>
</svg>
