<svg width="61" height="61" viewBox="0 0 61 61" fill="none" xmlns="http://www.w3.org/2000/svg">
<path d="M28.555 12.6675C28.0144 13.5653 23.6748 23.6652 21.5726 28.603C19.4704 33.5408 18.194 22.3186 18.194 22.3186L13.2388 30.623C13.2388 30.623 11.2547 36.8243 13.2388 39.8252C14.5214 41.7652 18.0814 43.3041 18.0814 43.3041C19.8483 40.0134 16.1711 35.842 18.0814 34.663C19.1427 34.008 24.1091 37.293 26.0774 34.663C27.9502 32.1607 26.7887 23.7296 29.2307 23.4408C32.0066 23.1125 33.0488 31.4714 35.7627 33.9897C37.8858 35.9598 41.8185 32.0522 43.1956 32.8674C45.723 34.3638 40.6671 41.7749 42.6325 43.3041C42.6325 43.3041 46.1925 41.7652 47.4751 39.8252C49.4592 36.8243 47.4751 30.623 47.4751 30.623L41.6189 19.1764C41.6189 19.1764 41.3622 24.1951 39.3665 26.3586C34.7459 31.3674 28.555 12.6675 28.555 12.6675Z" fill="#B1382D"/>
<path d="M22.924 46.783C28.1533 49.2956 32.5606 49.2956 37.7898 46.783C39.8898 45.7739 42.6325 43.3041 42.6325 43.3041C40.6671 41.7749 45.723 34.3638 43.1956 32.8674C41.8185 32.0522 37.8858 35.9598 35.7627 33.9897C33.0488 31.4714 32.0066 23.1125 29.2307 23.4408C26.7887 23.7296 27.9502 32.1607 26.0774 34.663C24.1091 37.293 19.1427 34.008 18.0814 34.663C16.1711 35.842 19.8483 40.0134 18.0814 43.3041C18.0814 43.3041 20.824 45.7739 22.924 46.783Z" fill="#DFB235"/>
<path d="M18.0814 43.3041C18.0814 43.3041 14.5214 41.7652 13.2388 39.8252C11.2547 36.8243 13.2388 30.623 13.2388 30.623L18.194 22.3186C18.194 22.3186 19.4704 33.5408 21.5726 28.603C23.6748 23.6652 28.0144 13.5653 28.555 12.6675C28.555 12.6675 34.7459 31.3674 39.3665 26.3586C41.3622 24.1951 41.6189 19.1764 41.6189 19.1764L47.4751 30.623C47.4751 30.623 49.4592 36.8243 47.4751 39.8252C46.1925 41.7652 42.6325 43.3041 42.6325 43.3041M18.0814 43.3041C18.0814 43.3041 20.824 45.7739 22.924 46.783C28.1533 49.2956 32.5606 49.2956 37.7898 46.783C39.8898 45.7739 42.6325 43.3041 42.6325 43.3041M18.0814 43.3041C19.8483 40.0134 16.1711 35.842 18.0814 34.663C19.1427 34.008 24.1091 37.293 26.0774 34.663C27.9502 32.1607 26.7887 23.7296 29.2307 23.4408C32.0066 23.1125 33.0488 31.4714 35.7627 33.9897C37.8858 35.9598 41.8185 32.0522 43.1956 32.8674C45.723 34.3638 40.6671 41.7749 42.6325 43.3041" stroke="black" stroke-width="0.6"/>
<circle cx="30.3569" cy="30.6675" r="28.5" stroke="white" stroke-width="3"/>
</svg>
