<svg width="100" height="101" viewBox="0 0 100 101" fill="none" xmlns="http://www.w3.org/2000/svg">
<path d="M46.9968 20.66C46.0959 22.1563 38.8632 38.9896 35.3594 47.2193C31.8557 55.4489 29.7285 36.7452 29.7285 36.7452L21.4697 50.5859C21.4697 50.5859 18.1629 60.9213 21.4697 65.9229C23.6074 69.1562 29.5408 71.7211 29.5408 71.7211C32.4856 66.2366 26.357 59.2843 29.5408 57.3192C31.3095 56.2275 39.5869 61.7025 42.8674 57.3192C45.9888 53.1487 44.053 39.097 48.123 38.6156C52.7494 38.0683 54.4865 52 59.0096 56.197C62.5482 59.4806 69.1026 52.9679 71.3977 54.3266C75.6101 56.8205 67.1836 69.1724 70.4592 71.7211C70.4592 71.7211 76.3926 69.1562 78.5303 65.9229C81.8371 60.9213 78.5303 50.5859 78.5303 50.5859L68.7699 31.5082C68.7699 31.5082 68.3422 39.8728 65.0159 43.4785C57.3149 51.8266 46.9968 20.66 46.9968 20.66Z" fill="#B1382D"/>
<path d="M37.6118 77.5192C46.3272 81.707 53.6728 81.707 62.3882 77.5192C65.8881 75.8374 70.4592 71.7211 70.4592 71.7211C67.1836 69.1724 75.6101 56.8205 71.3977 54.3266C69.1026 52.9679 62.5482 59.4806 59.0096 56.197C54.4865 52 52.7494 38.0683 48.123 38.6156C44.053 39.097 45.9888 53.1487 42.8674 57.3192C39.5869 61.7025 31.3095 56.2275 29.5408 57.3192C26.357 59.2843 32.4856 66.2366 29.5408 71.7211C29.5408 71.7211 34.1119 75.8374 37.6118 77.5192Z" fill="#DFB235"/>
<path d="M29.5408 71.7211C29.5408 71.7211 23.6074 69.1562 21.4697 65.9229C18.1629 60.9213 21.4697 50.5859 21.4697 50.5859L29.7285 36.7452C29.7285 36.7452 31.8557 55.4489 35.3594 47.2193C38.8632 38.9896 46.0959 22.1563 46.9968 20.66C46.9968 20.66 57.3149 51.8266 65.016 43.4785C68.3422 39.8728 68.7699 31.5082 68.7699 31.5082L78.5303 50.5859C78.5303 50.5859 81.8371 60.9213 78.5303 65.9229C76.3926 69.1562 70.4592 71.7211 70.4592 71.7211M29.5408 71.7211C29.5408 71.7211 34.1119 75.8374 37.6118 77.5192C46.3272 81.707 53.6728 81.707 62.3882 77.5192C65.8881 75.8374 70.4592 71.7211 70.4592 71.7211M29.5408 71.7211C32.4856 66.2366 26.357 59.2843 29.5408 57.3192C31.3095 56.2275 39.5869 61.7025 42.8674 57.3192C45.9888 53.1487 44.053 39.097 48.123 38.6156C52.7494 38.0683 54.4865 52 59.0096 56.197C62.5482 59.4806 69.1026 52.9679 71.3977 54.3266C75.6101 56.8205 67.1836 69.1724 70.4592 71.7211" stroke="black"/>
<circle cx="50" cy="50.66" r="47.5" stroke="white" stroke-width="5"/>
</svg>
