<svg width="60" height="60" viewBox="0 0 60 60" fill="none" xmlns="http://www.w3.org/2000/svg">
<rect x="1.5" y="1.5" width="57" height="57" rx="28.5" stroke="white" stroke-width="3"/>
<path d="M15.1429 34.0937C16.7208 35.7725 15.1429 40.1733 15.1429 40.1733C15.1429 40.1733 22.0635 35.2927 22.4444 38.3325C22.8254 41.3723 20.8571 46.2529 20.8571 46.2529C20.8571 46.2529 25.1751 42.7108 26.5714 42.6051C30.1957 42.331 30 52.3325 30 52.3325C30 52.3325 30.635 40.4614 34.5714 41.9972C36.5031 42.7508 38 46.2529 38 46.2529C38 46.2529 36.0847 36.6857 39.7143 36.5255C41.8177 36.4327 44.2857 39.5653 44.2857 39.5653C44.2857 39.5653 43.1435 33.9435 45.4286 32.8777C47.1139 32.0917 50 34.0937 50 34.0937C50 34.0937 49.6038 29.7216 48.2857 27.4061C47.1413 25.3957 46.343 24.0068 44.2857 23.1503C42.4154 22.3717 40.7942 24.3666 39.1429 23.1503C34.08 19.4212 39.6453 7.74019 30 7.34332C19.6122 6.9159 26.8064 19.2954 20.8571 23.1503C19.1418 24.2618 17.5846 22.3717 15.7143 23.1503C13.6697 24.0015 12.876 25.3834 11.7355 27.3691L11.7143 27.4061C10.1618 30.109 10 35.3096 10 35.3096C10 35.3096 11.4283 32.8662 12.8571 32.8777C13.8551 32.8858 14.4372 33.3429 15.1429 34.0937Z" fill="#61D3E3"/>
<path d="M27.7143 12.815L26.5714 14.6389M32.2857 12.815L33.4286 14.6389M27.7143 21.9344H32.2857C32.2857 21.9344 32.7847 19.9564 32.2857 18.8946C31.7867 17.8328 31.1158 17.0707 30 17.0707C28.8842 17.0707 28.2133 17.8328 27.7143 18.8946C27.2153 19.9564 27.7143 21.9344 27.7143 21.9344ZM15.1429 40.1733C15.1429 40.1733 16.7208 35.7725 15.1429 34.0937C14.4372 33.3429 13.8551 32.8858 12.8571 32.8777C11.4283 32.8662 10 35.3096 10 35.3096C10 35.3096 10.1618 30.109 11.7143 27.4061C12.8662 25.4005 13.657 24.0068 15.7143 23.1503C17.5846 22.3717 19.1418 24.2618 20.8571 23.1503C26.8064 19.2954 19.6122 6.9159 30 7.34332C39.6453 7.74019 34.08 19.4212 39.1429 23.1503C40.7942 24.3666 42.4154 22.3717 44.2857 23.1503C46.343 24.0068 47.1413 25.3957 48.2857 27.4061C49.6038 29.7216 50 34.0937 50 34.0937C50 34.0937 47.1139 32.0917 45.4286 32.8777C43.1435 33.9435 44.2857 39.5653 44.2857 39.5653C44.2857 39.5653 41.8177 36.4327 39.7143 36.5255C36.0847 36.6857 38 46.2529 38 46.2529C38 46.2529 36.5031 42.7508 34.5714 41.9972C30.635 40.4614 30 52.3325 30 52.3325C30 52.3325 30.1957 42.331 26.5714 42.6051C25.1751 42.7108 20.8571 46.2529 20.8571 46.2529C20.8571 46.2529 22.8254 41.3723 22.4444 38.3325C22.0635 35.2927 15.1429 40.1733 15.1429 40.1733Z" stroke="black" stroke-opacity="0.5" stroke-linecap="round" stroke-linejoin="round"/>
</svg>
