<svg width="100" height="100" viewBox="0 0 100 100" fill="none" xmlns="http://www.w3.org/2000/svg">
<rect x="2.5" y="2.5" width="95" height="95" rx="47.5" stroke="white" stroke-width="5"/>
<path d="M25.2381 56.8228C27.868 59.6209 25.2381 66.9555 25.2381 66.9555C25.2381 66.9555 36.7725 58.8213 37.4074 63.8876C38.0423 68.954 34.7619 77.0882 34.7619 77.0882C34.7619 77.0882 41.9585 71.1847 44.2857 71.0086C50.3262 70.5517 50 87.2209 50 87.2209C50 87.2209 51.0584 67.4358 57.6191 69.9954C60.8385 71.2514 63.3334 77.0882 63.3334 77.0882C63.3334 77.0882 60.1411 61.1429 66.1905 60.8759C69.6962 60.7212 73.8095 65.9423 73.8095 65.9423C73.8095 65.9423 71.9059 56.5726 75.7143 54.7963C78.5233 53.4862 83.3334 56.8228 83.3334 56.8228C83.3334 56.8228 82.673 49.536 80.4762 45.6769C78.5689 42.3262 77.2383 40.0114 73.8095 38.584C70.6923 37.2862 67.9903 40.6111 65.2381 38.584C56.8 32.3687 66.0754 12.9004 50 12.2389C32.6871 11.5266 44.6774 32.1591 34.7619 38.584C31.903 40.4364 29.3077 37.2862 26.1905 38.584C22.7829 40.0026 21.4601 42.3057 19.5592 45.6152L19.5238 45.6769C16.9363 50.1817 16.6667 58.8494 16.6667 58.8494C16.6667 58.8494 19.0472 54.7771 21.4286 54.7963C23.0919 54.8097 24.062 55.5715 25.2381 56.8228Z" fill="#61D3E3"/>
<path d="M46.1905 21.3584L44.2857 24.3982M53.8095 21.3584L55.7143 24.3982M46.1905 36.5574H53.8095C53.8095 36.5574 54.6412 33.2607 53.8095 31.4911C52.9779 29.7214 51.8597 28.4513 50 28.4513C48.1404 28.4513 47.0222 29.7214 46.1905 31.4911C45.3588 33.2607 46.1905 36.5574 46.1905 36.5574ZM25.2381 66.9555C25.2381 66.9555 27.868 59.6209 25.2381 56.8228C24.062 55.5715 23.0919 54.8097 21.4286 54.7963C19.0472 54.7771 16.6667 58.8494 16.6667 58.8494C16.6667 58.8494 16.9363 50.1817 19.5238 45.6769C21.4438 42.3343 22.7618 40.0114 26.1905 38.584C29.3077 37.2862 31.903 40.4364 34.7619 38.584C44.6774 32.1591 32.6871 11.5266 50 12.2389C66.0754 12.9004 56.8 32.3687 65.2381 38.584C67.9903 40.6111 70.6923 37.2862 73.8095 38.584C77.2383 40.0114 78.5689 42.3262 80.4762 45.6769C82.673 49.536 83.3334 56.8228 83.3334 56.8228C83.3334 56.8228 78.5233 53.4862 75.7143 54.7963C71.9059 56.5726 73.8095 65.9423 73.8095 65.9423C73.8095 65.9423 69.6962 60.7212 66.1905 60.8759C60.1411 61.1429 63.3334 77.0882 63.3334 77.0882C63.3334 77.0882 60.8385 71.2514 57.6191 69.9954C51.0584 67.4358 50 87.2209 50 87.2209C50 87.2209 50.3262 70.5517 44.2857 71.0086C41.9585 71.1847 34.7619 77.0882 34.7619 77.0882C34.7619 77.0882 38.0423 68.954 37.4074 63.8876C36.7725 58.8213 25.2381 66.9555 25.2381 66.9555Z" stroke="black" stroke-opacity="0.5" stroke-width="2" stroke-linecap="round" stroke-linejoin="round"/>
</svg>
