<svg width="60" height="60" viewBox="0 0 60 60" fill="none" xmlns="http://www.w3.org/2000/svg">
<rect x="1.5" y="1.5" width="57" height="57" rx="28.5" stroke="white" stroke-width="3"/>
<path fill-rule="evenodd" clip-rule="evenodd" d="M14.4572 26.2044C12.5309 32.1432 11.1334 36.4521 19.6479 41.4589L20.418 42.0578L21.188 42.6567C30.6576 49.0776 40.5874 41.8461 46 33.4164L41.0376 31.3629L46 23.6627L39.6687 21.9515L41.0376 11L26.8349 17.6736L23.4125 14.0801L19.6479 22.636L16.2256 19.5559C15.8155 22.0165 15.1063 24.203 14.4572 26.2044Z" fill="#32A653"/>
<path d="M19.6479 41.4589L13.6588 47.7902L15.37 49.3303L21.188 42.6567L20.418 42.0578L19.6479 41.4589Z" fill="#288648"/>
<path d="M19.6479 41.4589L13.6588 47.7902L15.37 49.3303L21.188 42.6567M19.6479 41.4589L20.418 42.0578M19.6479 41.4589C11.1334 36.4521 12.5309 32.1432 14.4572 26.2044C15.1063 24.203 15.8155 22.0165 16.2256 19.5559L19.6479 22.636L23.4125 14.0801L26.8349 17.6736L41.0376 11L39.6687 21.9515L46 23.6627L41.0376 31.3629L46 33.4164C40.5874 41.8461 30.6576 49.0776 21.188 42.6567M21.188 42.6567L20.418 42.0578M20.418 42.0578L22.3858 38.9491M38.1286 14.0801L27.1881 31.3629M26.4298 32.5608L24.097 20.2403M26.4298 32.5608L22.3858 38.9491M26.4298 32.5608L27.1881 31.3629M22.3858 38.9491L17.7657 27.085M22.3858 38.9491L39.8398 35.2986M27.1881 31.3629L40.5242 26.5717" stroke="#288648" stroke-width="1.0267" stroke-linecap="round"/>
</svg>
