<svg width="100" height="100" viewBox="0 0 100 100" fill="none" xmlns="http://www.w3.org/2000/svg">
<rect x="2.5" y="2.5" width="95" height="95" rx="47.5" stroke="white" stroke-width="5"/>
<path fill-rule="evenodd" clip-rule="evenodd" d="M24.0953 43.6739C20.8849 53.5721 18.5557 60.7535 32.7466 69.0981L34.03 70.0963L35.3134 71.0945C51.096 81.7959 67.6456 69.7435 76.6667 55.6939L68.396 52.2716L76.6667 39.4378L66.1145 36.5858L68.396 18.3333L44.7248 29.456L39.0209 23.4669L32.7466 37.7266L27.0427 32.5931C26.3592 36.6942 25.1772 40.3383 24.0953 43.6739Z" fill="#32A653"/>
<path d="M32.7466 69.0981L22.7648 79.6503L25.6167 82.2171L35.3134 71.0945L34.03 70.0963L32.7466 69.0981Z" fill="#288648"/>
<path d="M32.7466 69.0981L22.7648 79.6503L25.6167 82.2171L35.3134 71.0945M32.7466 69.0981L34.03 70.0963M32.7466 69.0981C18.5557 60.7535 20.8849 53.5721 24.0953 43.6739C25.1772 40.3383 26.3592 36.6942 27.0427 32.5931L32.7466 37.7266L39.0209 23.4669L44.7248 29.456L68.396 18.3333L66.1145 36.5858L76.6667 39.4378L68.396 52.2716L76.6667 55.6939C67.6456 69.7435 51.096 81.7959 35.3134 71.0945M35.3134 71.0945L34.03 70.0963M34.03 70.0963L37.3097 64.9152M63.5477 23.4669L45.3135 52.2716M44.0498 54.268L40.1617 33.7339M44.0498 54.268L37.3097 64.9152M44.0498 54.268L45.3135 52.2716M37.3097 64.9152L29.6094 45.1417M37.3097 64.9152L66.3997 58.8311M45.3135 52.2716L67.5404 44.2861" stroke="#288648" stroke-width="1.71117" stroke-linecap="round"/>
</svg>
