<svg width="100" height="101" viewBox="0 0 100 101" fill="none" xmlns="http://www.w3.org/2000/svg">
<circle cx="50" cy="50.66" r="47.5" stroke="white" stroke-width="5"/>
<path d="M78 50.16C78 55.1751 76.6575 59.8767 74.3124 63.9249C72.7465 66.6279 70.7337 69.0396 68.375 71.0589C64.781 74.1358 60.384 76.3017 55.5417 77.1989C53.9073 77.5017 52.2221 77.66 50.5 77.66C46.9404 77.66 43.5388 76.9837 40.4167 75.7526C35.035 73.6306 30.4836 69.8601 27.3846 65.0633C24.6103 60.7692 23 55.6527 23 50.16C23 38.0158 30.872 27.7101 41.7917 24.0674C44.5283 23.1545 47.4564 22.66 50.5 22.66C55.8921 22.66 60.9218 24.2119 65.1667 26.8934C69.3468 29.534 72.7659 33.2699 75.0208 37.698C76.9259 41.4391 78 45.6741 78 50.16Z" fill="#725937"/>
<path d="M78 50.16C78 55.1751 76.6575 59.8767 74.3124 63.9249M78 50.16L75.0208 51.535M78 50.16C78 45.6741 76.9259 41.4391 75.0208 37.698M23 50.16C23 38.0158 30.872 27.7101 41.7917 24.0674M23 50.16H26.2083M23 50.16C23 55.6527 24.6103 60.7692 27.3846 65.0633M50.5 22.66C55.8921 22.66 60.9218 24.2119 65.1667 26.8934M50.5 22.66L55.5417 29.9934M50.5 22.66C47.4564 22.66 44.5283 23.1545 41.7917 24.0674M55.5417 77.1989C53.9073 77.5017 52.2221 77.66 50.5 77.66C46.9404 77.66 43.5388 76.9837 40.4167 75.7526M55.5417 77.1989C60.384 76.3017 64.781 74.1358 68.375 71.0589M55.5417 77.1989V72.617M40.4167 68.035L44.0833 63.4517H50.5L55.5417 68.035V72.617M40.4167 68.035V75.7526M40.4167 68.035L34.2256 65.0633M40.4167 75.7526C35.035 73.6306 30.4836 69.8601 27.3846 65.0633M68.375 71.0589V66.2017M68.375 71.0589C70.7337 69.0396 72.7465 66.6279 74.3124 63.9249M68.375 66.2017L71.3437 65.0633M68.375 66.2017L55.5417 72.617M68.375 66.2017C68.375 65.291 68.375 59.4056 68.375 56.5767M74.3124 63.9249L71.3437 65.0633M71.3437 65.0633L68.375 56.5767M68.375 56.5767L72.0417 52.91L75.0208 51.535M68.375 56.5767C68.375 55.8434 68.375 51.9934 68.375 50.16L62.4167 43.285M68.375 56.5767L61.5 58.8684L55.0833 58.41L49.125 51.535M75.0208 51.535L72.0417 38.7017M72.0417 38.7017L75.0208 37.698M72.0417 38.7017L64.25 37.698M75.0208 37.698C72.7659 33.2699 69.3468 29.534 65.1667 26.8934M64.25 37.698L60.125 29.0767M64.25 37.698C64.25 38.501 63.0278 41.7573 62.4167 43.285M60.125 29.0767L65.1667 26.8934M60.125 29.0767L55.5417 29.9934M55.5417 29.9934L50.0417 35.035M50.0417 35.035L43.1667 29.9934M50.0417 35.035L55.5417 43.285M43.1667 29.9934L41.7917 24.0674M43.1667 29.9934L34.2256 35.9517M28.9583 62.535L26.2083 50.16M28.9583 62.535L34.2256 65.0633M28.9583 62.535C28.9583 63.2684 27.9091 64.5261 27.3846 65.0633M26.2083 50.16L33.0833 42.3684M33.0833 42.3684L45 51.535M33.0833 42.3684L34.2256 35.9517M45 51.535V57.9517L34.2256 65.0633M45 51.535H49.125M34.2256 35.9517L28.0417 35.035M62.4167 43.285H55.5417M55.5417 43.285L52.7917 48.3267L49.125 51.535" stroke="black"/>
</svg>
