<svg width="61" height="61" viewBox="0 0 61 61" fill="none" xmlns="http://www.w3.org/2000/svg">
<circle cx="30.119" cy="30.6675" r="28.5" stroke="white" stroke-width="3"/>
<path d="M46.9189 30.3675C46.9189 33.3766 46.1135 36.1975 44.7064 38.6264C43.7669 40.2482 42.5592 41.6952 41.1439 42.9068C38.9875 44.7529 36.3493 46.0525 33.4439 46.5908C32.4633 46.7725 31.4522 46.8675 30.4189 46.8675C28.2832 46.8675 26.2422 46.4617 24.3689 45.7231C21.1399 44.4498 18.4091 42.1875 16.5497 39.3095C14.8851 36.733 13.9189 33.6631 13.9189 30.3675C13.9189 23.0809 18.6421 16.8975 25.1939 14.7119C26.8359 14.1642 28.5928 13.8675 30.4189 13.8675C33.6542 13.8675 36.672 14.7986 39.2189 16.4075C41.727 17.9919 43.7785 20.2334 45.1314 22.8903C46.2745 25.1349 46.9189 27.6759 46.9189 30.3675Z" fill="#725937"/>
<path d="M46.9189 30.3675C46.9189 33.3766 46.1135 36.1975 44.7064 38.6264M46.9189 30.3675L45.1314 31.1925M46.9189 30.3675C46.9189 27.6759 46.2745 25.1349 45.1314 22.8903M13.9189 30.3675C13.9189 23.0809 18.6421 16.8975 25.1939 14.7119M13.9189 30.3675H15.8439M13.9189 30.3675C13.9189 33.6631 14.8851 36.733 16.5497 39.3095M30.4189 13.8675C33.6542 13.8675 36.672 14.7986 39.2189 16.4075M30.4189 13.8675L33.4439 18.2675M30.4189 13.8675C28.5928 13.8675 26.8359 14.1642 25.1939 14.7119M33.4439 46.5908C32.4633 46.7725 31.4522 46.8675 30.4189 46.8675C28.2832 46.8675 26.2422 46.4617 24.3689 45.7231M33.4439 46.5908C36.3493 46.0525 38.9875 44.7529 41.1439 42.9068M33.4439 46.5908V43.8417M24.3689 41.0925L26.5689 38.3425H30.4189L33.4439 41.0925V43.8417M24.3689 41.0925V45.7231M24.3689 41.0925L20.6543 39.3095M24.3689 45.7231C21.1399 44.4498 18.4091 42.1875 16.5497 39.3095M41.1439 42.9068V39.9925M41.1439 42.9068C42.5592 41.6952 43.7669 40.2482 44.7064 38.6264M41.1439 39.9925L42.9252 39.3095M41.1439 39.9925L33.4439 43.8417M41.1439 39.9925C41.1439 39.4461 41.1439 35.9148 41.1439 34.2175M44.7064 38.6264L42.9252 39.3095M42.9252 39.3095L41.1439 34.2175M41.1439 34.2175L43.3439 32.0175L45.1314 31.1925M41.1439 34.2175C41.1439 33.7775 41.1439 31.4675 41.1439 30.3675L37.5689 26.2425M41.1439 34.2175L37.0189 35.5925L33.1689 35.3175L29.5939 31.1925M45.1314 31.1925L43.3439 23.4925M43.3439 23.4925L45.1314 22.8903M43.3439 23.4925L38.6689 22.8903M45.1314 22.8903C43.7785 20.2334 41.727 17.9919 39.2189 16.4075M38.6689 22.8903L36.1939 17.7175M38.6689 22.8903C38.6689 23.3721 37.9356 25.3258 37.5689 26.2425M36.1939 17.7175L39.2189 16.4075M36.1939 17.7175L33.4439 18.2675M33.4439 18.2675L30.1439 21.2925M30.1439 21.2925L26.0189 18.2675M30.1439 21.2925L33.4439 26.2425M26.0189 18.2675L25.1939 14.7119M26.0189 18.2675L20.6543 21.8425M17.4939 37.7925L15.8439 30.3675M17.4939 37.7925L20.6543 39.3095M17.4939 37.7925C17.4939 38.2325 16.8644 38.9871 16.5497 39.3095M15.8439 30.3675L19.9689 25.6925M19.9689 25.6925L27.1189 31.1925M19.9689 25.6925L20.6543 21.8425M27.1189 31.1925V35.0425L20.6543 39.3095M27.1189 31.1925H29.5939M20.6543 21.8425L16.9439 21.2925M37.5689 26.2425H33.4439M33.4439 26.2425L31.7939 29.2675L29.5939 31.1925" stroke="black" stroke-width="0.6"/>
</svg>
