<svg width="142" height="172" viewBox="0 0 142 172" fill="none" xmlns="http://www.w3.org/2000/svg">
<path d="M25.9162 69.5129C19.4162 92.0129 5.81625 138.813 3.41625 146.013C1.01625 153.213 44.7658 170.424 73.4162 168.513C83.5493 167.837 98.9162 163.413 98.9162 163.413L138.416 155.513C138.416 155.513 139.006 142.388 138.416 134.013C136.918 112.738 124.916 81.0943 124.916 81.0943C124.916 81.0943 115.165 87.4442 108.916 91.5129C95.4053 94.6202 86.9271 94.6202 73.4162 91.5129C60.8165 88.6151 43.4162 77.5129 43.4162 77.5129L51.9162 56.5129L62.6662 44.2629C62.6662 44.2629 68.3866 35.9132 73.4162 32.0129C81.7615 25.5414 88.4017 22.0296 98.9162 23.0129C111.212 24.1627 124.916 41.0129 124.916 41.0129C124.916 41.0129 118.957 19.9357 108.916 11.5129C94.2755 -0.768476 79.4532 3.34632 60.4162 5.01288C44.0374 6.44674 27.0673 1.708 19.9162 16.5129C15.7548 25.1283 19.9162 41.0129 19.9162 41.0129C19.9162 41.0129 23.5731 58.3829 25.9162 69.5129Z" fill="#511D52"/>
<path d="M124.916 41.0129C124.916 41.0129 111.212 24.1627 98.9162 23.0129C88.4017 22.0296 81.7615 25.5414 73.4162 32.0129C68.3866 35.9132 62.6662 44.2629 62.6662 44.2629C62.6662 44.2629 74.0168 56.9611 83.4162 56.5129C90.1331 56.1926 98.9162 49.0129 98.9162 49.0129C102.25 54.0129 110.516 64.0129 116.916 64.0129L124.916 41.0129Z" fill="#633C27"/>
<path d="M51.9162 56.5129L43.4162 77.5129C43.4162 77.5129 60.8165 88.6151 73.4162 91.5129C86.9271 94.6202 95.4053 94.6202 108.916 91.5129C112.04 80.7735 116.916 64.0129 116.916 64.0129C110.516 64.0129 102.25 54.0129 98.9162 49.0129C98.9162 49.0129 90.1331 56.1926 83.4162 56.5129C74.0168 56.9611 62.6662 44.2629 62.6662 44.2629L51.9162 56.5129Z" fill="#E1BB89"/>
<path d="M130.416 77.5129L124.916 41.0129L116.916 64.0129C116.916 64.0129 112.04 80.7735 108.916 91.5129C115.165 87.4442 124.916 81.0943 124.916 81.0943L130.416 77.5129Z" fill="#511D52"/>
<path d="M25.9162 69.5129C19.4162 92.0129 5.81625 138.813 3.41625 146.013C1.01625 153.213 44.7658 170.424 73.4162 168.513C83.5493 167.837 98.9162 163.413 98.9162 163.413M25.9162 69.5129C30.9931 76.5423 38.9162 87.5129 38.9162 87.5129M25.9162 69.5129C23.5731 58.3829 19.9162 41.0129 19.9162 41.0129C19.9162 41.0129 15.7548 25.1283 19.9162 16.5129C27.0673 1.708 44.0374 6.44674 60.4162 5.01288C79.4532 3.34632 94.2755 -0.768476 108.916 11.5129C118.957 19.9357 124.916 41.0129 124.916 41.0129M124.916 41.0129L130.416 77.5129L124.916 81.0943M124.916 41.0129C124.916 41.0129 111.212 24.1627 98.9162 23.0129C88.4017 22.0296 81.7615 25.5414 73.4162 32.0129C68.3866 35.9132 62.6662 44.2629 62.6662 44.2629M124.916 41.0129L116.916 64.0129M108.916 91.5129C115.165 87.4442 124.916 81.0943 124.916 81.0943M108.916 91.5129C95.4053 94.6202 86.9271 94.6202 73.4162 91.5129C60.8165 88.6151 43.4162 77.5129 43.4162 77.5129L51.9162 56.5129L62.6662 44.2629M108.916 91.5129C112.04 80.7735 116.916 64.0129 116.916 64.0129M124.916 81.0943C124.916 81.0943 136.918 112.738 138.416 134.013C139.006 142.388 138.416 155.513 138.416 155.513L98.9162 163.413M116.916 64.0129C110.516 64.0129 102.25 54.0129 98.9162 49.0129C98.9162 49.0129 90.1331 56.1926 83.4162 56.5129C74.0168 56.9611 62.6662 44.2629 62.6662 44.2629M89.9162 99.5129L98.9162 163.413" stroke="black" stroke-width="5" stroke-linecap="round"/>
<path d="M72.3215 65.9926V73.9926M97.3215 65.9926V73.9926" stroke="black" stroke-width="3" stroke-linecap="round"/>
</svg>
