<svg width="61" height="61" viewBox="0 0 61 61" fill="none" xmlns="http://www.w3.org/2000/svg">
<rect x="1.85693" y="2.16748" width="57" height="57" rx="28.5" stroke="white" stroke-width="3"/>
<path d="M35.3517 29.9513L31.4804 30.7215L30.1236 47.6675L35.3517 29.9513Z" fill="#32C7F7"/>
<path d="M35.3517 29.9513L30.1236 14.6675L31.4804 30.7215L35.3517 29.9513Z" fill="#32C7F7"/>
<path d="M31.4804 30.7215H22.6614L30.1236 47.6675L31.4804 30.7215Z" fill="#39F9FE"/>
<path d="M30.1236 14.6675L22.6614 30.7215H31.4804L30.1236 14.6675Z" fill="#39F9FE"/>
<path d="M30.1236 14.6675L22.6614 30.7215M30.1236 14.6675L35.3517 29.9513M30.1236 14.6675L31.4804 30.7215M22.6614 30.7215H31.4804M22.6614 30.7215L30.1236 47.6675M35.3517 29.9513L31.4804 30.7215M35.3517 29.9513L30.1236 47.6675M31.4804 30.7215L30.1236 47.6675" stroke="#102F65" stroke-width="0.5"/>
<path d="M46.3569 40.1875L44.3371 40.4336L43.6292 45.3193L46.3569 40.1875Z" fill="#32C7F7"/>
<path d="M46.3569 40.1875L43.6292 35.8328L44.3371 40.4336L46.3569 40.1875Z" fill="#32C7F7"/>
<path d="M44.3371 40.4336H39.7359L43.6292 45.3193L44.3371 40.4336Z" fill="#39F9FE"/>
<path d="M43.6292 35.8328L39.7359 40.4336H44.3371L43.6292 35.8328Z" fill="#39F9FE"/>
<path d="M43.6292 35.8328L39.7359 40.4336M43.6292 35.8328L46.3569 40.1875M43.6292 35.8328L44.3371 40.4336M39.7359 40.4336H44.3371M39.7359 40.4336L43.6292 45.3193M46.3569 40.1875L44.3371 40.4336M46.3569 40.1875L43.6292 45.3193M44.3371 40.4336L43.6292 45.3193" stroke="#102F65" stroke-width="0.3"/>
<path d="M19.978 20.8644L17.9582 21.1843L17.1495 25.6428L19.978 20.8644Z" fill="#32C7F7"/>
<path d="M19.978 20.8644L17.1495 16.6833L17.9582 21.1843L19.978 20.8644Z" fill="#32C7F7"/>
<path d="M17.9582 21.1843H13.3569L17.1495 25.6428L17.9582 21.1843Z" fill="#39F9FE"/>
<path d="M17.1495 16.6833L13.3569 21.1843H17.9582L17.1495 16.6833Z" fill="#39F9FE"/>
<path d="M17.1495 16.6833L13.3569 21.1843M17.1495 16.6833L19.978 20.8645M17.1495 16.6833L17.9582 21.1843M13.3569 21.1843H17.9582M13.3569 21.1843L17.1495 25.6428M19.978 20.8645L17.9582 21.1843M19.978 20.8645L17.1495 25.6428M17.9582 21.1843L17.1495 25.6428" stroke="#102F65" stroke-width="0.3"/>
</svg>
