<svg width="100" height="100" viewBox="0 0 100 100" fill="none" xmlns="http://www.w3.org/2000/svg">
<rect x="2.5" y="2.5" width="95" height="95" rx="47.5" stroke="white" stroke-width="5"/>
<path d="M58.3246 48.8062L51.8724 50.09L49.6111 78.3333L58.3246 48.8062Z" fill="#32C7F7"/>
<path d="M58.3246 48.8062L49.6111 23.3333L51.8724 50.09L58.3246 48.8062Z" fill="#32C7F7"/>
<path d="M51.8724 50.09H37.1741L49.6111 78.3333L51.8724 50.09Z" fill="#39F9FE"/>
<path d="M49.6111 23.3333L37.1741 50.09H51.8724L49.6111 23.3333Z" fill="#39F9FE"/>
<path d="M49.6111 23.3333L37.1741 50.09M49.6111 23.3333L58.3246 48.8062M49.6111 23.3333L51.8724 50.09M37.1741 50.09H51.8724M37.1741 50.09L49.6111 78.3333M58.3246 48.8062L51.8724 50.09M58.3246 48.8062L49.6111 78.3333M51.8724 50.09L49.6111 78.3333" stroke="#102F65" stroke-width="0.833333"/>
<path d="M76.6667 65.8668L73.3003 66.2769L72.1205 74.4197L76.6667 65.8668Z" fill="#32C7F7"/>
<path d="M76.6667 65.8668L72.1205 58.6089L73.3003 66.2769L76.6667 65.8668Z" fill="#32C7F7"/>
<path d="M73.3003 66.2769H65.6316L72.1205 74.4197L73.3003 66.2769Z" fill="#39F9FE"/>
<path d="M72.1205 58.6089L65.6316 66.2769H73.3003L72.1205 58.6089Z" fill="#39F9FE"/>
<path d="M72.1205 58.6089L65.6316 66.2769M72.1205 58.6089L76.6667 65.8668M72.1205 58.6089L73.3003 66.2769M65.6316 66.2769H73.3003M65.6316 66.2769L72.1205 74.4197M76.6667 65.8668L73.3003 66.2769M76.6667 65.8668L72.1205 74.4197M73.3003 66.2769L72.1205 74.4197" stroke="#102F65" stroke-width="0.5"/>
<path d="M32.7017 33.6616L29.3354 34.1947L27.9876 41.6255L32.7017 33.6616Z" fill="#32C7F7"/>
<path d="M32.7017 33.6616L27.9876 26.6931L29.3354 34.1947L32.7017 33.6616Z" fill="#32C7F7"/>
<path d="M29.3354 34.1947H21.6667L27.9876 41.6255L29.3354 34.1947Z" fill="#39F9FE"/>
<path d="M27.9876 26.6931L21.6667 34.1947H29.3354L27.9876 26.6931Z" fill="#39F9FE"/>
<path d="M27.9876 26.6931L21.6667 34.1947M27.9876 26.6931L32.7017 33.6616M27.9876 26.6931L29.3354 34.1947M21.6667 34.1947H29.3354M21.6667 34.1947L27.9876 41.6255M32.7017 33.6616L29.3354 34.1947M32.7017 33.6616L27.9876 41.6255M29.3354 34.1947L27.9876 41.6255" stroke="#102F65" stroke-width="0.5"/>
</svg>
