<svg width="60" height="60" viewBox="0 0 60 60" fill="none" xmlns="http://www.w3.org/2000/svg">
<rect x="0.5" y="0.5" width="59" height="59" rx="29.5" stroke="#9C9DA4"/>
<path d="M42.1025 38.3205C42.6853 38.3208 43.2456 38.5453 43.6674 38.9475C44.0891 39.3496 44.34 39.8986 44.368 40.4807C44.396 41.0628 44.199 41.6334 43.8178 42.0742C43.4366 42.5149 42.9004 42.7922 42.3204 42.8484L42.1025 42.859H17.8974C17.3146 42.8587 16.7543 42.6342 16.3326 42.2321C15.9108 41.8299 15.6599 41.2809 15.6319 40.6988C15.6039 40.1167 15.8009 39.5462 16.1821 39.1054C16.5633 38.6646 17.0995 38.3874 17.6796 38.3311L17.8974 38.3205H42.1025ZM42.1025 27.7308C42.7044 27.7308 43.2816 27.9699 43.7071 28.3954C44.1327 28.821 44.3718 29.3982 44.3718 30C44.3718 30.6019 44.1327 31.1791 43.7071 31.6046C43.2816 32.0302 42.7044 32.2693 42.1025 32.2693H17.8974C17.2956 32.2693 16.7184 32.0302 16.2928 31.6046C15.8673 31.1791 15.6282 30.6019 15.6282 30C15.6282 29.3982 15.8673 28.821 16.2928 28.3954C16.7184 27.9699 17.2956 27.7308 17.8974 27.7308H42.1025ZM42.1025 17.1411C42.7044 17.1411 43.2816 17.3801 43.7071 17.8057C44.1327 18.2313 44.3718 18.8084 44.3718 19.4103C44.3718 20.0121 44.1327 20.5893 43.7071 21.0149C43.2816 21.4404 42.7044 21.6795 42.1025 21.6795H17.8974C17.2956 21.6795 16.7184 21.4404 16.2928 21.0149C15.8673 20.5893 15.6282 20.0121 15.6282 19.4103C15.6282 18.8084 15.8673 18.2313 16.2928 17.8057C16.7184 17.3801 17.2956 17.1411 17.8974 17.1411H42.1025Z" fill="#9C9DA4"/>
</svg>
