<svg width="60" height="60" viewBox="0 0 62 62" fill="none" xmlns="http://www.w3.org/2000/svg">
<rect x="0.5" y="0.5" width="61" height="61" rx="30.5" stroke="#9C9DA4" stroke-linejoin="round"/>
<path d="M35.8148 44.7037H19.1482C18.2641 44.7037 17.4163 44.3525 16.7911 43.7274C16.166 43.1022 15.8148 42.2544 15.8148 41.3703V39.5185C15.8148 38.9291 16.0489 38.3639 16.4657 37.9471C16.8824 37.5304 17.4477 37.2963 18.037 37.2963H20.2593M35.8148 44.7037C36.7971 44.7037 37.7392 44.3135 38.4337 43.6189C39.1283 42.9243 39.5185 41.9823 39.5185 41V24.7037M35.8148 44.7037C34.8325 44.7037 33.8905 44.3135 33.1959 43.6189C32.5013 42.9243 32.1111 41.9823 32.1111 41V38.7777C32.1111 38.3848 31.955 38.008 31.6772 37.7302C31.3994 37.4523 31.0225 37.2963 30.6296 37.2963H20.2593M20.2593 37.2963V22.4815C20.2593 21.1063 20.8056 19.7874 21.778 18.815C22.7504 17.8426 24.0693 17.2963 25.4444 17.2963H43.0385M39.5185 24.7037H44.7037C45.0966 24.7037 45.4734 24.5476 45.7513 24.2698C46.0291 23.9919 46.1852 23.6151 46.1852 23.2222V20.6296C46.1852 19.7455 45.834 18.8977 45.2089 18.2726C44.5838 17.6475 43.7359 17.2963 42.8519 17.2963C41.9678 17.2963 41.12 17.6475 40.4948 18.2726C39.8697 18.8977 39.5185 19.7455 39.5185 20.6296V24.7037ZM25.8148 23.9629H34.7037M25.8148 29.8889H31.7407" stroke="#9C9DA4" stroke-width="3" stroke-linecap="round" stroke-linejoin="round"/>
</svg>
