<svg width="100" height="100" viewBox="0 0 100 100" fill="none" xmlns="http://www.w3.org/2000/svg">
<g id="sand">
<g id="Group 4">
<circle id="Ellipse 1" cx="50" cy="50" r="47.5" stroke="white" stroke-width="5"/>
</g>
<path id="Vector 64" d="M65.2941 59.8039C58.4707 63.4163 47.1328 68.5021 42.1033 58.2353C39.0889 52.0819 44.9557 43.8894 52.1033 44.7208C56.6262 45.2469 61.2397 50.1675 61.27 54.7208C61.3498 66.6997 46.2877 65.4444 39.4117 63.7254M65.2941 59.8039C83.2993 43.7992 72.7464 18.3429 50.3921 16.6666M65.2941 59.8039C66.542 49.8203 68.1626 42.1497 60.5882 33.9215M60.5882 33.9215C51.4151 30.7451 42.9661 33.6364 35.4902 39.4117M60.5882 33.9215C43.3098 16.6431 19.3091 26.9142 16.6666 49.6078M35.4902 39.4117C15.6803 52.6279 27.7957 81.7925 50.3921 83.3333M35.4902 39.4117C32.787 48.1137 33.0694 56.7888 39.4117 63.7254M39.4117 63.7254C54.2806 82.3115 82.1351 73.3339 83.3333 50.3921" stroke="#DBBA67" stroke-width="2" stroke-linecap="round" stroke-linejoin="round"/>
</g>
</svg>
