<svg width="60" height="60" viewBox="0 0 60 60" fill="none" xmlns="http://www.w3.org/2000/svg">
<g id="sand-mob">
<g id="Group 4">
<circle id="Ellipse 1" cx="30" cy="30" r="28.5" stroke="white" stroke-width="3"/>
</g>
<path id="Vector 64" d="M39.1765 35.8824C35.0824 38.0498 28.2797 41.1013 25.262 34.9412C23.4534 31.2492 26.9734 26.3337 31.262 26.8325C33.9758 27.1482 36.7438 30.1006 36.762 32.8325C36.8099 40.0199 27.7726 39.2667 23.6471 38.2353M39.1765 35.8824C49.9796 26.2796 43.6479 11.0058 30.2353 10M39.1765 35.8824C39.9252 29.8922 40.8976 25.2899 36.3529 20.3529M36.3529 20.3529C30.8491 18.4471 25.7797 20.1818 21.2941 23.6471M36.3529 20.3529C25.9859 9.98591 11.5855 16.1485 10 29.7647M21.2941 23.6471C9.40822 31.5768 16.6775 49.0755 30.2353 50M21.2941 23.6471C19.6723 28.8683 19.8417 34.0733 23.6471 38.2353M23.6471 38.2353C32.5684 49.387 49.2811 44.0004 50 30.2353" stroke="#DBBA67" stroke-linecap="round" stroke-linejoin="round"/>
</g>
</svg>
