<svg width="60" height="61" viewBox="0 0 60 61" fill="none" xmlns="http://www.w3.org/2000/svg">
<rect x="1.5" y="2.16748" width="57" height="57" rx="28.5" stroke="white" stroke-width="3"/>
<path fill-rule="evenodd" clip-rule="evenodd" d="M30.063 13.2675C29.5011 14.0078 22.8047 27.7652 19.5268 34.5513C19.5268 34.5513 18.7916 38.3325 19.5268 40.5663C20.4684 43.4275 22.0541 44.8232 24.6778 46.35C25.9507 47.0907 26.7454 47.4328 28.1899 47.7381C29.9782 48.116 31.1143 48.2345 32.8727 47.7381C34.0522 47.4051 34.6468 46.9998 35.6824 46.35C38.3044 44.7046 40.0902 43.4796 41.0676 40.5663C41.8156 38.3366 41.0676 34.5513 41.0676 34.5513L30.063 13.2675ZM22.5706 30.8498L28.8923 19.7452C28.8923 19.7452 23.1051 28.9639 23.273 35.4767C23.3247 37.4821 25.0247 38.849 23.9754 40.5663C23.5744 41.2226 23.3442 41.8956 22.5706 41.9544C21.73 42.0183 21.4195 41.2456 20.9316 40.5663C19.7674 38.9454 20.5882 37.4352 20.9316 35.4767C21.2623 33.5904 22.5706 30.8498 22.5706 30.8498Z" fill="#388BDD"/>
<path d="M28.8923 19.7452L22.5706 30.8498C22.5706 30.8498 21.2623 33.5904 20.9316 35.4767C20.5882 37.4352 19.7674 38.9454 20.9316 40.5663C21.4195 41.2456 21.73 42.0183 22.5706 41.9544C23.3442 41.8956 23.5744 41.2226 23.9754 40.5663C25.0247 38.849 23.3247 37.4821 23.273 35.4767C23.1051 28.9639 28.8923 19.7452 28.8923 19.7452Z" fill="#A3C7EC"/>
<path fill-rule="evenodd" clip-rule="evenodd" d="M30.063 13.2675C29.5011 14.0078 22.8047 27.7652 19.5268 34.5513C19.5268 34.5513 18.7916 38.3325 19.5268 40.5663C20.4684 43.4275 22.0541 44.8232 24.6778 46.35C25.9507 47.0907 26.7454 47.4328 28.1899 47.7381C29.9782 48.116 31.1143 48.2345 32.8727 47.7381C34.0522 47.4051 34.6468 46.9998 35.6824 46.35C38.3044 44.7046 40.0902 43.4796 41.0676 40.5663C41.8156 38.3366 41.0676 34.5513 41.0676 34.5513L30.063 13.2675ZM22.5706 30.8498L28.8923 19.7452C28.8923 19.7452 23.1051 28.9639 23.273 35.4767C23.3247 37.4821 25.0247 38.849 23.9754 40.5663C23.5744 41.2226 23.3442 41.8956 22.5706 41.9544C21.73 42.0183 21.4195 41.2456 20.9316 40.5663C19.7674 38.9454 20.5882 37.4352 20.9316 35.4767C21.2623 33.5904 22.5706 30.8498 22.5706 30.8498Z" stroke="black" stroke-width="0.6"/>
<path d="M28.8923 19.7452L22.5706 30.8498C22.5706 30.8498 21.2623 33.5904 20.9316 35.4767C20.5882 37.4352 19.7674 38.9454 20.9316 40.5663C21.4195 41.2456 21.73 42.0183 22.5706 41.9544C23.3442 41.8956 23.5744 41.2226 23.9754 40.5663C25.0247 38.849 23.3247 37.4821 23.273 35.4767C23.1051 28.9639 28.8923 19.7452 28.8923 19.7452Z" stroke="black" stroke-width="0.6"/>
</svg>
