<svg width="100" height="101" viewBox="0 0 100 101" fill="none" xmlns="http://www.w3.org/2000/svg">
<rect x="2.5" y="3.16003" width="95" height="95" rx="47.5" stroke="white" stroke-width="5"/>
<path fill-rule="evenodd" clip-rule="evenodd" d="M50.105 21.66C49.1685 22.8939 38.0078 45.8229 32.5446 57.1332C32.5446 57.1332 31.3193 63.4351 32.5446 67.1582C34.114 71.9268 36.7567 74.2529 41.1297 76.7976C43.2511 78.0321 44.5756 78.6022 46.9832 79.1111C49.9636 79.741 51.8572 79.9384 54.7878 79.1111C56.7537 78.5561 57.7446 77.8807 59.4706 76.7976C63.8407 74.0553 66.817 72.0136 68.4459 67.1582C69.6926 63.442 68.4459 57.1332 68.4459 57.1332L50.105 21.66ZM37.6176 50.9639L48.1539 32.4562C48.1539 32.4562 38.5085 47.8207 38.7883 58.6755C38.8745 62.0177 41.7078 64.2959 39.959 67.1582C39.2907 68.252 38.9069 69.3736 37.6176 69.4716C36.2167 69.5781 35.6991 68.2903 34.886 67.1582C32.9456 64.4566 34.3137 61.9396 34.886 58.6755C35.4372 55.5316 37.6176 50.9639 37.6176 50.9639Z" fill="#388BDD"/>
<path d="M48.1539 32.4562L37.6176 50.9639C37.6176 50.9639 35.4372 55.5316 34.886 58.6755C34.3137 61.9396 32.9456 64.4566 34.886 67.1582C35.6991 68.2903 36.2167 69.5781 37.6176 69.4716C38.9069 69.3736 39.2907 68.252 39.959 67.1582C41.7078 64.2959 38.8745 62.0177 38.7883 58.6755C38.5085 47.8207 48.1539 32.4562 48.1539 32.4562Z" fill="#A3C7EC"/>
<path fill-rule="evenodd" clip-rule="evenodd" d="M50.105 21.66C49.1685 22.8939 38.0078 45.8229 32.5446 57.1332C32.5446 57.1332 31.3193 63.4351 32.5446 67.1582C34.114 71.9268 36.7567 74.2529 41.1297 76.7976C43.2511 78.0321 44.5756 78.6022 46.9832 79.1111C49.9636 79.741 51.8572 79.9384 54.7878 79.1111C56.7537 78.5561 57.7446 77.8807 59.4706 76.7976C63.8407 74.0553 66.817 72.0136 68.4459 67.1582C69.6926 63.442 68.4459 57.1332 68.4459 57.1332L50.105 21.66ZM37.6176 50.9639L48.1539 32.4562C48.1539 32.4562 38.5085 47.8207 38.7883 58.6755C38.8745 62.0177 41.7078 64.2959 39.959 67.1582C39.2907 68.252 38.9069 69.3736 37.6176 69.4716C36.2167 69.5781 35.6991 68.2903 34.886 67.1582C32.9456 64.4566 34.3137 61.9396 34.886 58.6755C35.4372 55.5316 37.6176 50.9639 37.6176 50.9639Z" stroke="black"/>
<path d="M48.1539 32.4562L37.6176 50.9639C37.6176 50.9639 35.4372 55.5316 34.886 58.6755C34.3137 61.9396 32.9456 64.4566 34.886 67.1582C35.6991 68.2903 36.2167 69.5781 37.6176 69.4716C38.9069 69.3736 39.2907 68.252 39.959 67.1582C41.7078 64.2959 38.8745 62.0177 38.7883 58.6755C38.5085 47.8207 48.1539 32.4562 48.1539 32.4562Z" stroke="black"/>
</svg>
