<svg width="60" height="60" viewBox="0 0 60 60" fill="none" xmlns="http://www.w3.org/2000/svg">
<rect x="1.5" y="1.5" width="57" height="57" rx="28.5" stroke="white" stroke-width="3"/>
<path fill-rule="evenodd" clip-rule="evenodd" d="M30.063 12.6C25.7765 18.2472 16.9403 32.0398 19.5268 39.8989C22.7021 49.5472 37.9168 49.2905 41.0676 39.8989C43.9029 31.4474 33.6214 19.4823 30.063 12.6ZM27.5 19C23.4852 23.8383 22.7216 33.9564 23.9754 39.8989C24.9694 42.9392 22.2864 42.6316 20.9316 40.5C17.7299 35.4627 24.4231 22.6032 27.5 19Z" fill="#388BDD"/>
<path d="M27.5 19C24.4231 22.6032 17.7299 35.4627 20.9316 40.5C22.2864 42.6316 24.9694 42.9392 23.9754 39.8989C22.7216 33.9564 23.4852 23.8383 27.5 19Z" fill="#A3C7EC"/>
<path fill-rule="evenodd" clip-rule="evenodd" d="M30.063 12.6C25.7765 18.2472 16.9403 32.0398 19.5268 39.8989C22.7021 49.5472 37.9168 49.2905 41.0676 39.8989C43.9029 31.4474 33.6214 19.4823 30.063 12.6ZM27.5 19C23.4852 23.8383 22.7216 33.9564 23.9754 39.8989C24.9694 42.9392 22.2864 42.6316 20.9316 40.5C17.7299 35.4627 24.4231 22.6032 27.5 19Z" stroke="#2166AC" stroke-width="0.6"/>
<path d="M27.5 19C24.4231 22.6032 17.7299 35.4627 20.9316 40.5C22.2864 42.6316 24.9694 42.9392 23.9754 39.8989C22.7216 33.9564 23.4852 23.8383 27.5 19Z" stroke="#2166AC" stroke-width="0.6"/>
</svg>
