<svg width="100" height="100" viewBox="0 0 100 100" fill="none" xmlns="http://www.w3.org/2000/svg">
<rect x="2.5" y="2.5" width="95" height="95" rx="47.5" stroke="white" stroke-width="5"/>
<path fill-rule="evenodd" clip-rule="evenodd" d="M50.1051 20.9999C42.9609 30.4119 28.2338 53.3996 32.5446 66.4981C37.8369 82.5786 63.1947 82.1507 68.446 66.4981C73.1716 52.4123 56.0357 32.4704 50.1051 20.9999ZM45.8334 31.6666C39.142 39.7305 37.8694 56.5939 39.959 66.4981C41.6156 71.5653 37.1441 71.0526 34.886 67.5C29.5498 59.1045 40.7053 37.672 45.8334 31.6666Z" fill="#388BDD"/>
<path d="M45.8334 31.6666C40.7053 37.672 29.5498 59.1045 34.886 67.5C37.1441 71.0526 41.6156 71.5653 39.959 66.4981C37.8694 56.5939 39.142 39.7305 45.8334 31.6666Z" fill="#A3C7EC"/>
<path fill-rule="evenodd" clip-rule="evenodd" d="M50.1051 20.9999C42.9609 30.4119 28.2338 53.3996 32.5446 66.4981C37.8369 82.5786 63.1947 82.1507 68.446 66.4981C73.1716 52.4123 56.0357 32.4704 50.1051 20.9999ZM45.8334 31.6666C39.142 39.7305 37.8694 56.5939 39.959 66.4981C41.6156 71.5653 37.1441 71.0526 34.886 67.5C29.5498 59.1045 40.7053 37.672 45.8334 31.6666Z" stroke="#2166AC"/>
<path d="M45.8334 31.6666C40.7053 37.672 29.5498 59.1045 34.886 67.5C37.1441 71.0526 41.6156 71.5653 39.959 66.4981C37.8694 56.5939 39.142 39.7305 45.8334 31.6666Z" stroke="#2166AC"/>
</svg>
