<svg width="512" height="512" viewBox="0 0 512 512" fill="none" xmlns="http://www.w3.org/2000/svg">
<path d="M494.26 276.22C490.66 235.81 484.73 227.94 482.49 224.98C477.34 218.14 469.1 213.67 460.38 208.98C459.887 208.719 459.461 208.347 459.136 207.894C458.811 207.441 458.596 206.918 458.508 206.367C458.42 205.816 458.461 205.252 458.628 204.72C458.795 204.188 459.083 203.702 459.47 203.3C461.085 201.662 462.326 199.694 463.108 197.531C463.89 195.368 464.194 193.062 464 190.77C463.624 186.706 461.734 182.932 458.706 180.196C455.677 177.46 451.731 175.963 447.65 176H432.05C431.381 176.004 430.714 176.047 430.05 176.13C429.595 175.932 429.123 175.775 428.64 175.66C419.4 156.13 406.75 129.39 380.53 116.34C341.64 97 270 96 256 96C242 96 170.36 97 131.52 116.31C105.3 129.36 92.65 156.1 83.41 175.63L83.33 175.79C82.8692 175.855 82.4166 175.969 81.98 176.13C81.3165 176.047 80.6487 176.004 79.98 176H64.35C60.2689 175.963 56.3228 177.46 53.2943 180.196C50.2658 182.932 48.3761 186.706 48 190.77C47.8224 193.056 48.1406 195.354 48.9327 197.506C49.7249 199.659 50.9724 201.614 52.59 203.24C52.977 203.642 53.2653 204.128 53.4323 204.66C53.5992 205.192 53.6402 205.756 53.5519 206.307C53.4637 206.858 53.2486 207.381 52.9238 207.834C52.5989 208.287 52.1732 208.659 51.68 208.92C42.96 213.64 34.68 218.11 29.57 224.92C27.33 227.92 21.41 235.75 17.8 276.16C15.8 298.9 15.5 322.44 17.07 337.6C20.36 369.1 26.53 388.14 26.79 388.93C27.7368 391.805 29.4796 394.352 31.8161 396.276C34.1526 398.2 36.9869 399.422 39.99 399.8V400C39.99 404.243 41.6757 408.313 44.6763 411.314C47.6769 414.314 51.7466 416 55.99 416H111.99C116.233 416 120.303 414.314 123.304 411.314C126.304 408.313 127.99 404.243 127.99 400C136.6 400 142.59 398.46 148.94 396.82C158.108 394.351 167.479 392.707 176.94 391.91C207.45 389 237.79 388 256 388C273.84 388 305.52 389 336.08 391.91C345.579 392.707 354.987 394.357 364.19 396.84C370.27 398.4 376.04 399.84 384.03 399.99C384.03 404.233 385.716 408.303 388.716 411.304C391.717 414.304 395.787 415.99 400.03 415.99H456.03C460.273 415.99 464.343 414.304 467.344 411.304C470.344 408.303 472.03 404.233 472.03 399.99V399.87C475.04 399.499 477.883 398.281 480.227 396.356C482.571 394.432 484.32 391.88 485.27 389C485.53 388.21 491.7 369.17 494.99 337.67C496.56 322.5 496.28 299 494.26 276.22ZM112.33 189.31C120.33 172.31 129.48 153.07 145.77 144.96C169.31 133.24 218.1 127.96 256 127.96C293.9 127.96 342.69 133.2 366.23 144.96C382.52 153.07 391.63 172.32 399.67 189.31L400.67 191.48C401.255 192.715 401.513 194.08 401.421 195.444C401.328 196.807 400.888 198.124 400.142 199.27C399.396 200.415 398.369 201.35 397.159 201.985C395.949 202.621 394.596 202.936 393.23 202.9C360 202 290 199.12 256 199.12C222 199.12 152 202.07 118.72 202.97C117.354 203.006 116.001 202.691 114.791 202.055C113.581 201.42 112.554 200.485 111.808 199.34C111.062 198.194 110.622 196.877 110.529 195.514C110.437 194.15 110.695 192.785 111.28 191.55C111.63 190.81 112 190.06 112.33 189.31ZM124.26 268.94C107.058 271.011 89.7461 272.033 72.42 272C61.82 272 50.89 269 48.86 259.56C47.47 253.21 47.62 249.64 48.37 246.05C49 243 50 240.78 55 240C68 238 75.27 240.51 96.55 246.78C110.66 250.93 120.84 256.46 126.64 260.84C129.55 263 128 268.64 124.26 268.94ZM345.64 350.94C332.48 352.44 306.16 351.89 256.3 351.89C206.44 351.89 180.13 352.44 166.97 350.94C153.39 349.43 136.08 336.59 147.9 325.15C155.77 317.61 174.13 311.97 198.58 308.8C223.03 305.63 233.38 304 256.2 304C279.02 304 288.32 305 313.82 308.81C339.32 312.62 358.59 318.33 364.5 325.16C375.28 337.4 359.21 349.35 345.64 351V350.94ZM463.14 259.55C461.14 269.03 450.14 271.99 439.58 271.99C421.922 271.994 404.279 270.972 386.74 268.93C383.68 268.64 382.26 263.27 385.36 260.83C391.07 256.34 401.36 250.92 415.45 246.77C436.73 240.5 449 237.99 459.54 240.08C462.11 240.59 463.47 243.35 463.63 245.08C464.336 249.897 464.17 254.802 463.14 259.56V259.55Z" fill="black"/>
</svg>
