<svg width="48" height="40" viewBox="0 0 48 40" fill="none" xmlns="http://www.w3.org/2000/svg">
<path d="M0.0332031 32.2021L1.67949 28.3073H2.71256L4.35885 32.2021H3.20976L2.92802 31.5115H1.43641L1.16019 32.2021H0.0332031ZM1.75131 30.6773H2.61865L2.18774 29.5779L1.75131 30.6773Z" fill="white"/>
<path d="M4.7838 32.2021V29.2133H5.83345V29.6332C6.0268 29.3846 6.30302 29.147 6.72841 29.147C7.36372 29.147 7.74491 29.5669 7.74491 30.2464V32.2021H6.69526V30.5834C6.69526 30.2574 6.524 30.0807 6.2754 30.0807C6.02128 30.0807 5.83345 30.2574 5.83345 30.5834V32.2021H4.7838Z" fill="white"/>
<path d="M9.58338 32.2628C8.9536 32.2628 8.57793 31.9866 8.57793 31.2739V30.0586H8.22437V29.2133H8.57793V28.4565H9.62758V29.2133H10.3237V30.0586H9.62758V31.0695C9.62758 31.2795 9.72149 31.3679 9.91485 31.3679C10.053 31.3679 10.1855 31.3292 10.3126 31.2684V32.0916C10.1248 32.1965 9.87618 32.2628 9.58338 32.2628Z" fill="white"/>
<path d="M11.7416 32.2683C11.1726 32.2683 10.7361 31.9424 10.7361 31.3347C10.7361 30.716 11.2057 30.3956 11.9073 30.3956C12.1835 30.3956 12.4542 30.4508 12.6255 30.5116V30.4618C12.6255 30.1525 12.4321 29.9757 12.0289 29.9757C11.714 29.9757 11.4709 30.0365 11.2057 30.1414L10.9903 29.4012C11.3273 29.263 11.6863 29.1691 12.2001 29.1691C12.736 29.1691 13.1006 29.2962 13.3382 29.5337C13.5647 29.7547 13.6586 30.0641 13.6586 30.4839V32.2021H12.62V31.8927C12.4156 32.1192 12.1338 32.2683 11.7416 32.2683ZM12.1172 31.6109C12.4211 31.6109 12.6365 31.4176 12.6365 31.1193V30.9811C12.5316 30.937 12.3824 30.9038 12.2277 30.9038C11.9239 30.9038 11.7471 31.053 11.7471 31.285C11.7471 31.4894 11.9018 31.6109 12.1172 31.6109Z" fill="white"/>
<path d="M14.3637 32.2021V28.3349H16.1923C16.7834 28.3349 17.1922 28.4896 17.4518 28.7493C17.6783 28.9758 17.7944 29.2741 17.7944 29.6663C17.7944 30.2574 17.4795 30.6497 16.9988 30.8541L17.9214 32.2021H16.6839L15.905 31.0309H15.4354V32.2021H14.3637ZM15.4354 30.1911H16.1425C16.5072 30.1911 16.7171 30.0144 16.7171 29.7216C16.7171 29.4177 16.4961 29.263 16.137 29.263H15.4354V30.1911Z" fill="white"/>
<path d="M19.8107 32.2739C18.8715 32.2739 18.2086 31.6496 18.2086 30.7104C18.2086 29.8376 18.8329 29.147 19.7168 29.147C20.7499 29.147 21.225 29.9039 21.225 30.7823C21.225 30.8486 21.225 30.9259 21.2194 30.9977H19.2196C19.3024 31.3237 19.54 31.4894 19.8659 31.4894C20.1145 31.4894 20.3134 31.3955 20.5289 31.1856L21.1089 31.6662C20.8217 32.0308 20.4073 32.2739 19.8107 32.2739ZM19.203 30.4618H20.2416C20.2029 30.1304 20.0096 29.9205 19.7223 29.9205C19.4461 29.9205 19.2583 30.1359 19.203 30.4618Z" fill="white"/>
<path d="M22.9733 32.2683C22.4705 32.2683 21.9733 32.1247 21.559 31.8264L21.9512 31.1911C22.2938 31.4176 22.6694 31.5336 22.9788 31.5336C23.1611 31.5336 23.244 31.4783 23.244 31.3623C23.244 31.2463 23.0782 31.1911 22.7633 31.1082C22.1722 30.948 21.7026 30.7546 21.7026 30.1414C21.7026 29.5061 22.2109 29.1526 22.9015 29.1526C23.3379 29.1526 23.7909 29.2796 24.1334 29.5006L23.7743 30.1635C23.4649 29.9923 23.128 29.8873 22.8904 29.8873C22.7302 29.8873 22.6473 29.9481 22.6473 30.042C22.6473 30.158 22.8186 30.2132 23.1335 30.3072C23.7246 30.4784 24.1942 30.6773 24.1942 31.2684C24.1942 31.9258 23.7025 32.2683 22.9733 32.2683Z" fill="white"/>
<path fill-rule="evenodd" clip-rule="evenodd" d="M22.4952 5.50048L25.4933 0L28.4878 5.50246L44.3978 34.7373L47.2618 40H41.2702H9.68438H3.69067L6.5592 34.7373L6.94105 34.0367H12.9348L12.5529 34.7373H38.4062L25.4897 11.0029L16.8464 26.8603H10.8527L22.4952 5.50048Z" fill="white"/>
</svg>
