<svg width="42" height="42" viewBox="0 0 42 42" fill="none" xmlns="http://www.w3.org/2000/svg">
<rect x="0.5" y="0.5" width="41" height="41" rx="20.5" stroke="white"/>
<path d="M21.2955 27.2C15.4645 27.2 12.1386 22.9958 12 16H14.9208C15.0168 21.1347 17.1701 23.3097 18.8757 23.7582V16H21.626V20.4284C23.3103 20.2378 25.0798 18.2198 25.6768 16H28.4271C28.2021 17.1513 27.7537 18.2413 27.1099 19.202C26.4661 20.1627 25.6407 20.9733 24.6854 21.5832C25.7518 22.1404 26.6936 22.9292 27.4488 23.8974C28.2041 24.8656 28.7555 25.9912 29.0667 27.2H26.0392C25.7599 26.1501 25.1921 25.2102 24.407 24.4983C23.6219 23.7863 22.6545 23.3338 21.626 23.1976V27.2H21.2955Z" fill="white"/>
</svg>
